<?xml version="1.0" encoding="utf-8"?>
<!-- Generator: Adobe Illustrator 27.8.1, SVG Export Plug-In . SVG Version: 6.00 Build 0)  -->
<svg version="1.1" id="Layer_1" xmlns="http://www.w3.org/2000/svg" xmlns:xlink="http://www.w3.org/1999/xlink" x="0px" y="0px"
	 viewBox="0 0 1280 1280" style="enable-background:new 0 0 1280 1280;" xml:space="preserve">
<style type="text/css">
	.st0{fill:url(#SVGID_1_);}
	.st1{fill:url(#path69_00000028318946840953883480000011147962908829458304_);}
	.st2{fill:url(#path77_00000177466223768383201070000002842447121256367523_);}
	.st3{fill:url(#path968_00000168086920961714102130000000370997422179629701_);}
	.st4{fill:#FFFFFF;}
</style>
<g>
	
		<linearGradient id="SVGID_1_" gradientUnits="userSpaceOnUse" x1="626.024" y1="2371.9585" x2="642.5615" y2="139.4149" gradientTransform="matrix(1 0 0 -1 0 1277.8899)">
		<stop  offset="0.3379" style="stop-color:#5B8BEB"/>
		<stop  offset="0.7794" style="stop-color:#2742A2"/>
		<stop  offset="1" style="stop-color:#112283"/>
	</linearGradient>
	<rect x="-1.1" class="st0" width="1280" height="1280"/>
	<g id="g942" transform="matrix(1.3719271,0,0,1.3719271,169.4857,-38.493576)">
		<g id="g71" transform="matrix(3.3097462,0,0,3.3097462,-688.02908,65.088537)">
			
				<linearGradient id="path69_00000001646695333212031040000001430024048505214851_" gradientUnits="userSpaceOnUse" x1="290.3241" y1="180.1642" x2="474.0889" y2="178.7408" gradientTransform="matrix(25.2905 0 0 25.2905 -7143.7661 -4419.7163)">
				<stop  offset="9.999999e-08" style="stop-color:#FFB900"/>
				<stop  offset="0.3376" style="stop-color:#F38000"/>
				<stop  offset="0.5673" style="stop-color:#F83C72"/>
				<stop  offset="0.78" style="stop-color:#FC1CBE"/>
				<stop  offset="0.93" style="stop-color:#FE08ED"/>
				<stop  offset="1" style="stop-color:#FF00FF"/>
			</linearGradient>
			<path id="path69" style="fill:url(#path69_00000001646695333212031040000001430024048505214851_);" d="M311.9,228.5
				c-1.6,0-3.2-0.4-4.6-1.2c-12-7-101.2-62.9-104.6-64.6c-2.6-1.2-4.3-3.6-4.6-6.5V77.8c-0.1-2.9,1.4-5.7,3.8-7.3l0.7-0.4
				c8.6-5.4,37.5-23,42.1-25.5c1-0.6,2.2-1,3.5-1c1.1,0,2.3,0.3,3.3,0.8c0,0,40.4,26.3,46.6,28.7c4.3,2,9.1,3,13.8,2.9
				c5.4,0.1,10.7-1.2,15.5-3.8c6-3.2,44.7-27.7,45.1-27.7c1-0.6,2.1-0.9,3.2-0.9c1.2,0,2.4,0.3,3.5,1c5.2,2.9,41,24.8,42.6,25.8
				c2.5,1.5,4,4.3,4,7.2v78.4c-0.3,2.8-2,5.3-4.6,6.5c-3.4,1.8-92.2,57.7-104.5,64.6C315.1,228,313.5,228.4,311.9,228.5"/>
		</g>
		<g id="g79" transform="matrix(3.3097462,0,0,3.3097462,-688.02908,65.088537)">
			
				<linearGradient id="path77_00000109744244577889485270000011140898444070716321_" gradientUnits="userSpaceOnUse" x1="292.8286" y1="183.0809" x2="480.1847" y2="79.3433" gradientTransform="matrix(25.2905 0 0 25.2905 -7143.7661 -4419.7163)">
				<stop  offset="0" style="stop-color:#EE0A3F"/>
				<stop  offset="1" style="stop-color:#EE0A3F;stop-opacity:0"/>
			</linearGradient>
			<path id="path77" style="fill:url(#path77_00000109744244577889485270000011140898444070716321_);" d="M311.4,228.5h0.5
				c1.6,0,3.2-0.4,4.6-1.2c12-7,101.1-62.9,104.5-64.6c2.6-1.2,4.3-3.6,4.6-6.5V77.8c0-1.3-0.3-2.6-0.9-3.8l-113.3,62.2L311.4,228.5
				"/>
		</g>
		<g id="g970" transform="matrix(-3.2744849,0,0,3.2744849,-467.18522,65.934126)">
			
				<linearGradient id="path968_00000149367304995343931800000004361490329974137510_" gradientUnits="userSpaceOnUse" x1="-142.2014" y1="181.7598" x2="-50.6905" y2="108.0428" gradientTransform="matrix(24.7547 0 0 24.7547 3321.6404 -4353.7041)">
				<stop  offset="0" style="stop-color:#ED6600"/>
				<stop  offset="1" style="stop-color:#F98200"/>
			</linearGradient>
			<path id="path968" style="fill:url(#path968_00000149367304995343931800000004361490329974137510_);" d="M-246.9,229.6h0.5
				c1.6,0,3.2-0.4,4.6-1.2c12-7,101.1-62.9,104.5-64.6c2.6-1.2,4.3-3.6,4.6-6.5V78.9c0-1.3-0.3-2.6-0.9-3.8l-113.3,62.2V229.6"/>
		</g>
	</g>
	<g>
		<g id="g35_1_" transform="matrix(12.509277,0,0,12.509277,438.06846,8.29825)">
			<path id="path33_1_" class="st4" d="M-3.8,41h3.8v18h6.5v3.6H-3.8L-3.8,41"/>
		</g>
		<g id="g41_1_" transform="matrix(12.509277,0,0,12.509277,438.06846,8.29825)">
			<path id="path39_1_" class="st4" d="M15.1,46.4c2,0,3.9,0.9,5.1,2.4v-2.1h3.5v15.9h-3.5v-2.1c-1.2,1.6-3.1,2.5-5.1,2.4
				c-4.4,0-7.7-3.7-7.7-8.3C7.4,50.1,10.7,46.4,15.1,46.4 M15.7,49.6c-2.8,0-4.7,2.2-4.7,5.1s1.9,5.1,4.7,5.1c2.8,0,4.7-2.2,4.7-5.1
				S18.5,49.6,15.7,49.6"/>
		</g>
		<g id="g47_1_" transform="matrix(12.509277,0,0,12.509277,438.06846,8.29825)">
			<path id="path45_1_" class="st4" d="M26.4,59.8l8.3-10h-8.2v-3.2h12.7v2.8l-8.3,9.9h8.5v3.2h-13L26.4,59.8"/>
		</g>
	</g>
</g>
</svg>
