<?xml version="1.0" encoding="UTF-8" standalone="no"?>
<!-- Created with Inkscape (http://www.inkscape.org/) -->

<svg
   width="147.69302mm"
   height="149.41743mm"
   viewBox="0 0 147.69303 149.41743"
   version="1.1"
   id="svg228426"
   xml:space="preserve"
   sodipodi:docname="Tea logo.svg"
   inkscape:version="1.2.2 (732a01da63, 2022-12-09)"
   xmlns:inkscape="http://www.inkscape.org/namespaces/inkscape"
   xmlns:sodipodi="http://sodipodi.sourceforge.net/DTD/sodipodi-0.dtd"
   xmlns="http://www.w3.org/2000/svg"
   xmlns:svg="http://www.w3.org/2000/svg"><sodipodi:namedview
     id="namedview228428"
     pagecolor="#ffffff"
     bordercolor="#000000"
     borderopacity="0.25"
     inkscape:showpageshadow="2"
     inkscape:pageopacity="0.0"
     inkscape:pagecheckerboard="0"
     inkscape:deskcolor="#d1d1d1"
     inkscape:document-units="mm"
     showgrid="false"
     inkscape:zoom="0.76078844"
     inkscape:cx="-74.922274"
     inkscape:cy="214.25142"
     inkscape:window-width="1920"
     inkscape:window-height="1009"
     inkscape:window-x="1072"
     inkscape:window-y="433"
     inkscape:window-maximized="1"
     inkscape:current-layer="layer1" /><defs
     id="defs228423" /><g
     inkscape:label="Layer 1"
     inkscape:groupmode="layer"
     id="layer1"
     transform="translate(-16.922812,-88.050064)"><path
       style="fill:#e70012;fill-opacity:1;stroke-width:0.101438"
       d="m 28.428341,237.00503 c -0.41992,-0.0762 -0.96365,-0.38719 -0.96365,-0.55121 0,-0.19616 0.85802,-0.49448 1.39141,-0.48378 0.26979,0.005 0.61591,-0.0723 0.84704,-0.19023 0.50406,-0.25715 0.66874,-0.25134 0.81629,0.0288 0.0661,0.12553 0.16512,0.25753 0.22003,0.29334 0.18201,0.11868 0.72789,-0.10745 1.00953,-0.41823 0.31007,-0.34213 0.55455,-0.37947 0.99461,-0.15191 0.31278,0.16175 0.63363,0.1273 1.10489,-0.11863 0.14319,-0.0747 0.33765,-0.13615 0.43212,-0.13648 0.22566,-0.001 0.48758,-0.38381 0.48758,-0.71298 0,-0.1438 0.0426,-0.30482 0.0947,-0.35782 0.0521,-0.053 0.10912,-0.27895 0.12679,-0.50211 l 0.0321,-0.40575 1.26563,-0.0287 c 0.69609,-0.0158 1.47208,0.022 1.72443,0.0839 0.25235,0.0619 0.7196,0.17286 1.03833,0.24658 0.31873,0.0737 0.70147,0.22999 0.85054,0.34725 0.30984,0.24373 0.4744,0.25877 1.07907,0.0987 0.34044,-0.0902 0.66163,-0.0805 1.50805,0.0451 1.11995,0.16629 1.32756,0.15437 1.91692,-0.11004 0.19527,-0.0876 0.74303,-0.20148 1.21725,-0.25307 0.47422,-0.0516 1.1361,-0.17632 1.47085,-0.2772 0.33474,-0.10087 1.03473,-0.20798 1.55552,-0.23801 0.5828,-0.0336 1.0354,-0.11258 1.17706,-0.2054 0.12659,-0.0829 0.40801,-0.18383 0.62538,-0.2242 0.21738,-0.0404 0.48652,-0.13095 0.5981,-0.20128 0.19407,-0.12231 0.43441,-0.16974 2.55611,-0.50447 0.51321,-0.081 1.28362,-0.26163 1.71203,-0.40147 0.4284,-0.13985 0.83995,-0.25427 0.91455,-0.25427 0.0746,0 0.18183,-0.0863 0.23827,-0.19177 0.0859,-0.16047 0.27261,-0.2039 1.14474,-0.26621 0.57316,-0.041 1.24753,-0.13881 1.49858,-0.21744 0.284,-0.089 1.1348,-0.16284 2.25181,-0.19553 1.52287,-0.0446 1.84326,-0.0278 2.11109,0.11073 0.17366,0.0898 0.68412,0.22804 1.13436,0.3072 0.7407,0.13023 0.85356,0.18177 1.18564,0.54138 0.24945,0.27014 0.51323,0.43497 0.82348,0.51459 0.74302,0.19067 0.74758,0.19329 0.61471,0.35337 -0.0942,0.11346 -0.0738,0.15653 0.10022,0.21175 0.27621,0.0877 0.52086,-0.11829 0.30153,-0.25384 -0.29429,-0.18188 0.0371,-0.25549 1.30506,-0.28992 1.01252,-0.0275 1.37385,0 1.67775,0.1268 0.60559,0.25303 1.23687,0.21395 1.5225,-0.0943 0.23408,-0.25258 0.25312,-0.25528 1.38992,-0.19688 0.63393,0.0326 1.58624,0.14441 2.11625,0.24855 1.95076,0.3833 2.3769,0.41615 3.78706,0.29189 1.26461,-0.11143 1.37246,-0.1061 2.03092,0.1003 0.38246,0.11989 0.81991,0.21798 0.97211,0.21798 0.3424,0 0.44467,0.092 0.29832,0.26831 -0.0879,0.10593 -0.4006,0.12097 -1.45945,0.0702 -1.12257,-0.0538 -1.4174,-0.0367 -1.76587,0.10274 -0.27836,0.11138 -0.71835,0.16738 -1.31505,0.16738 -0.80372,0 -0.93765,0.0279 -1.29128,0.26927 -0.75809,0.51738 -1.2322,0.66427 -2.32391,0.71999 -1.46088,0.0746 -1.68229,0.016 -2.14765,-0.56807 -0.6997,-0.87818 -1.09822,-1.16123 -1.70589,-1.21163 -0.45879,-0.038 -0.64583,0.005 -1.21202,0.28118 -0.78845,0.38411 -1.65283,0.49804 -2.33326,0.30753 -0.39799,-0.11143 -0.49083,-0.10606 -0.71596,0.0414 -0.14227,0.0932 -0.28593,0.30576 -0.31924,0.4723 -0.0811,0.4053 -0.45332,0.67839 -1.03011,0.75567 -0.26108,0.035 -0.64679,0.12859 -0.85714,0.20802 -0.28047,0.10591 -0.88186,0.14442 -2.25553,0.14442 -1.03019,0 -2.06774,0.0434 -2.30565,0.0964 -0.23791,0.053 -0.93468,0.21801 -1.54837,0.36666 -2.52973,0.61273 -2.46226,0.60447 -3.76631,0.46143 -0.65768,-0.0721 -1.28771,-0.19555 -1.40005,-0.27424 -0.12614,-0.0883 -0.46255,-0.14306 -0.87966,-0.14306 -0.37147,0 -1.28566,-0.093 -2.03154,-0.20659 -0.74587,-0.11363 -1.56154,-0.2347 -1.8126,-0.26905 -0.25106,-0.0344 -0.56533,-0.1468 -0.69838,-0.24988 -0.3358,-0.26016 -1.21014,-0.25225 -1.70963,0.0154 -0.24531,0.13149 -0.57538,0.20355 -0.93793,0.20478 -0.30767,0.001 -0.99064,0.11517 -1.51771,0.25359 -0.52706,0.13843 -1.06172,0.2517 -1.18813,0.2517 -0.12641,0 -0.44835,0.0847 -0.71542,0.18835 -0.54749,0.21234 -2.30562,0.4448 -3.2244,0.4263 -0.33474,-0.007 -0.86736,-0.0617 -1.18359,-0.12214 -0.48765,-0.0932 -0.62631,-0.0838 -0.91294,0.0618 -0.7508,0.3814 -3.13116,0.99998 -4.44619,1.15545 -0.96113,0.11361 -2.71965,0.12384 -3.29671,0.0192 z m 7.65853,-2.54042 c 0,-0.0558 -0.0456,-0.10144 -0.10143,-0.10144 -0.0558,0 -0.10144,0.0456 -0.10144,0.10144 0,0.0558 0.0456,0.10143 0.10144,0.10143 0.0558,0 0.10143,-0.0456 0.10143,-0.10143 z m -12.05007,1.82805 c -0.12794,-0.10666 -0.44746,-0.22508 -0.71006,-0.26314 -0.26261,-0.0381 -0.51657,-0.0919 -0.56437,-0.11967 -0.12399,-0.072 0.14836,-0.2246 0.40416,-0.22644 0.48234,-0.003 0.61526,-0.59129 0.24976,-1.10457 l -0.21913,-0.30775 0.23181,-0.15004 c 0.19005,-0.12302 0.80974,-0.16174 1.20454,-0.0753 0.1391,0.0305 0.29524,0.56444 0.29524,1.00967 0,0.28375 0.0691,0.57852 0.16912,0.7213 0.16277,0.23238 0.15874,0.25037 -0.1071,0.47904 -0.3325,0.286 -0.64089,0.29793 -0.95397,0.0369 z m 62.89563,-2.87124 c -0.57186,-0.28797 -1.03974,-0.55943 -1.03974,-0.60326 0,-0.0438 0.43651,-0.28919 0.97002,-0.54527 l 0.97001,-0.46561 2.14919,0.0124 c 2.69109,0.0155 5.61693,0.16953 6.81263,0.3586 0.5036,0.0796 1.94268,0.16919 3.19797,0.19904 1.255289,0.0298 2.828339,0.10579 3.495669,0.16878 1.19826,0.1131 2.47522,0.0804 3.85855,-0.0988 1.08865,-0.14103 4.31141,-0.0909 4.59617,0.0715 0.41821,0.23849 0.23354,0.45739 -0.53983,0.63989 -0.55854,0.13181 -1.05314,0.15752 -2.3319,0.12124 -0.89265,-0.0253 -1.80559,-0.0875 -2.02875,-0.13826 -0.5759,-0.13088 -4.58938,-0.12124 -5.02183,0.0121 -0.1949,0.0601 -1.02023,0.10425 -1.83408,0.0982 -1.470539,-0.011 -1.483429,-0.009 -2.079469,0.3055 l -0.59975,0.31655 -4.76756,0.0355 -4.76757,0.0355 z m 75.391649,-5.11005 c -0.0899,-0.0899 -0.15053,-0.34131 -0.15075,-0.62496 0,-0.29401 -0.0769,-0.60002 -0.20138,-0.80426 -0.16909,-0.27731 -0.26166,-0.3299 -0.58289,-0.33116 -0.66084,-0.003 -0.84734,-0.17089 -1.06625,-0.96216 -0.17792,-0.64312 -0.1851,-0.80571 -0.0761,-1.72444 0.088,-0.74172 0.0905,-1.09113 0.009,-1.29993 -0.18405,-0.47318 -0.12732,-1.12483 0.19503,-2.24045 0.3553,-1.22958 0.49661,-2.1266 0.56888,-3.61096 0.0576,-1.18385 0.12737,-1.43509 0.61206,-2.20479 0.73263,-1.16345 0.97618,-1.76693 1.05126,-2.60493 0.0544,-0.60671 0.11764,-0.83636 0.25892,-0.93967 0.10283,-0.0752 0.23447,-0.1208 0.29252,-0.10135 0.1295,0.0434 0.14914,11.24923 0.0204,11.63267 -0.0468,0.13948 -0.10361,0.91548 -0.12617,1.72444 -0.0225,0.80896 -0.0506,1.63061 -0.0623,1.82587 -0.0117,0.19527 0.0314,0.69683 0.0958,1.11457 0.10981,0.71216 0.10422,0.77326 -0.0895,0.97946 -0.27306,0.29066 -0.56355,0.35738 -0.74889,0.17205 z M 39.332871,228.028 c -0.41856,-0.11093 -0.46767,-0.15826 -0.59145,-0.57002 -0.26177,-0.8708 -0.50783,-1.36333 -0.74304,-1.48727 -0.17002,-0.0896 -0.95729,-0.12572 -2.76238,-0.1268 l -2.52459,-0.002 -0.44019,-0.40575 -0.44019,-0.40575 -0.94056,-0.006 c -0.66147,-0.004 -1.07602,-0.0602 -1.39703,-0.18946 -0.4018,-0.16177 -0.46911,-0.23473 -0.56194,-0.60915 -0.11133,-0.44898 -0.2711,-0.61143 -0.6046,-0.61476 -0.31378,-0.003 -1.36844,-0.46223 -1.60479,-0.69857 -0.19833,-0.19834 -0.20387,-0.24974 -0.0876,-0.81268 0.0729,-0.35281 0.0963,-0.83731 0.0568,-1.17337 -0.0495,-0.42096 -0.0182,-0.73453 0.11822,-1.18507 0.14748,-0.4871 0.16086,-0.65208 0.0653,-0.80514 -0.20043,-0.32093 -0.13925,-0.64231 0.29838,-1.56754 0.39001,-0.82454 0.41502,-0.9298 0.36599,-1.54056 -0.0289,-0.36055 -0.0163,-0.94816 0.028,-1.3058 0.0705,-0.56868 0.12555,-0.69 0.43864,-0.96719 0.1969,-0.17432 0.46242,-0.369 0.59004,-0.43264 0.12762,-0.0636 0.30062,-0.25196 0.38444,-0.41853 0.0838,-0.16656 0.26748,-0.48543 0.40814,-0.70859 0.68102,-1.08049 0.86016,-1.94366 0.9473,-4.56469 0.006,-0.16737 9.2e-4,-0.69676 -0.0104,-1.17642 l -0.0205,-0.87207 -0.45423,-0.49729 c -0.50277,-0.55043 -0.54636,-0.7618 -0.30391,-1.47337 0.13877,-0.40726 0.13877,-0.49972 0,-0.89304 -0.22334,-0.63303 -0.21644,-2.9843 0.01,-3.40564 0.13087,-0.24351 0.17055,-0.70969 0.19861,-2.33306 0.0209,-1.20912 0.0853,-2.19268 0.15933,-2.4345 0.0712,-0.23246 0.11364,-0.82645 0.0994,-1.39075 -0.0162,-0.63857 0.0195,-1.06669 0.10138,-1.21725 0.11876,-0.21844 0.19683,-0.91089 0.34638,-3.0725 0.0535,-0.77331 0.0308,-1.00458 -0.14832,-1.51209 -0.11631,-0.32953 -0.21147,-0.8174 -0.21147,-1.08415 0,-0.26676 -0.0664,-0.77314 -0.14765,-1.1253 -0.0812,-0.35215 -0.14633,-0.98263 -0.14472,-1.40106 0.003,-0.77026 -0.002,-1.4129 -0.0165,-2.10482 -0.0112,-0.53999 0.0985,-13.0461 0.12043,-13.71943 0.01,-0.30684 -0.0186,-0.88884 -0.0636,-1.29332 -0.0829,-0.74633 -0.0146,-0.90451 0.25201,-0.58327 0.17093,0.20597 0.3284,0.19148 0.64758,-0.0596 0.29268,-0.23022 0.69984,-0.97838 0.61082,-1.12241 -0.0304,-0.0491 -0.0778,-0.21369 -0.10531,-0.3657 -0.094,-0.51833 -0.80453,-1.02263 -1.16729,-0.82848 -0.15075,0.0807 -0.17496,-0.0116 -0.22198,-0.8461 -0.029,-0.51516 -0.10838,-1.21054 -0.17633,-1.54528 -0.1797,-0.88527 -0.1521,-1.33313 0.13129,-2.13019 0.22339,-0.62833 0.26751,-1.00194 0.38328,-3.246 0.072,-1.39476 0.0964,-2.80982 0.0543,-3.14456 -0.0421,-0.33474 -0.071,-0.85968 -0.0642,-1.16653 0.007,-0.30685 0.023,-0.99155 0.0361,-1.52156 0.0186,-0.75137 -0.0193,-1.07539 -0.17183,-1.47085 -0.15718,-0.40741 -0.19785,-0.78655 -0.20674,-1.92731 -0.009,-1.17812 -0.0482,-1.52384 -0.22927,-2.02875 -0.19057,-0.53159 -0.218,-0.82292 -0.21672,-2.30162 0.001,-1.34001 0.0316,-1.71801 0.14598,-1.81294 0.18543,-0.15389 0.1853,-0.70444 -3e-4,-1.13139 -0.0796,-0.18321 -0.26378,-0.72466 -0.40921,-1.20323 -0.24396,-0.80272 -0.26821,-1.05414 -0.31312,-3.246 -0.0268,-1.30673 -0.0756,-2.59461 -0.10853,-2.86195 -0.0349,-0.28315 -0.0102,-0.60584 0.059,-0.77298 0.0939,-0.22666 0.0893,-0.35893 -0.0217,-0.62975 -0.14648,-0.3572 -0.16156,-2.12029 -0.0242,-2.83207 0.0576,-0.29844 0.007,-0.47274 -0.30094,-1.03259 l -0.37022,-0.67353 -0.02,-2.16269 -0.0199,-2.1627 0.28376,-0.56875 0.28375,-0.56875 -0.058,-2.88012 c -0.048,-2.38624 -0.091,-3.00189 -0.25091,-3.59019 -0.10612,-0.39053 -0.22355,-1.12679 -0.26095,-1.63613 -0.065,-0.88455 -0.0545,-0.95505 0.23316,-1.57229 0.16565,-0.35541 0.42479,-0.77805 0.57587,-0.93919 0.19102,-0.20373 0.25634,-0.35824 0.21444,-0.50719 -0.0331,-0.11781 -0.087,-0.39679 -0.11974,-0.61995 -0.0553,-0.37681 -0.0298,-0.43317 0.3564,-0.79023 l 0.4159,-0.38448 0.0102,-0.93421 c 0.0255,-2.34131 0.0938,-2.7493 0.53797,-3.21443 0.18758,-0.19643 0.39527,-0.52738 0.46153,-0.73544 0.0759,-0.23822 0.22002,-0.42603 0.38929,-0.50719 0.33441,-0.16035 0.5249,-0.52389 0.52685,-1.00546 10e-4,-0.29105 0.10293,-0.49003 0.47983,-0.9383 0.26308,-0.312901 0.52591,-0.568911 0.58407,-0.568911 0.0582,0 0.32011,-0.11412 0.58211,-0.2536 0.26201,-0.13947 0.61992,-0.25359 0.79536,-0.25359 0.22093,0 0.40316,-0.0901 0.59283,-0.29316 0.28541,-0.30553 0.53882,-0.95366 0.45662,-1.16786 -0.0615,-0.16015 0.31298,-0.5008 0.48623,-0.44236 0.073,0.0246 0.3609,-0.0158 0.63985,-0.0898 0.80392,-0.21331 1.83672,-0.17818 2.24878,0.0765 0.23176,0.14323 0.63625,0.24391 1.22923,0.30596 2.24015,0.23441 2.24514,0.23539 2.41076,0.47184 0.13465,0.19225 0.252,0.226 0.7865,0.22618 0.49843,2.1e-4 0.74466,0.0616 1.19171,0.29725 0.52044,0.27434 0.67538,0.30241 2.02875,0.36749 0.82879,0.0399 2.62623,0.0169 4.13797,-0.0529 2.46465,-0.11379 2.71337,-0.14234 3.19528,-0.36672 0.28742,-0.13383 0.66514,-0.24377 0.83936,-0.24431 0.17423,-5.1e-4 0.52099,-0.0913 0.77059,-0.20173 0.33398,-0.14774 0.86637,-0.22993 2.01628,-0.31129 0.85937,-0.0608 2.04177,-0.15005 2.62758,-0.19835 1.49771,-0.12346 3.95823,-0.20735 7.15134,-0.24381 l 2.73881,-0.0313 1.0651,-0.33044 c 0.5858,-0.18174 1.38462,-0.36702 1.77515,-0.41173 0.98465,-0.11273 10.35788,-0.10745 11.96963,0.007 0.72528,0.0514 1.84363,0.14052 2.48522,0.19808 0.64159,0.0576 4.17922,0.14648 7.86141,0.19758 3.68218,0.0511 6.900289,0.1383 7.151339,0.19376 0.25106,0.0555 0.87764,0.14772 1.3924,0.20502 0.83402,0.0928 0.99969,0.14723 1.52156,0.4996 0.3221,0.21749 0.71374,0.42684 0.8703,0.46523 0.42289,0.10368 4.10698,-0.12344 4.63506,-0.28576 0.25105,-0.0772 0.90076,-0.16591 1.44379,-0.19722 0.54304,-0.0313 1.27787,-0.11046 1.63298,-0.17589 0.55381,-0.10205 0.75243,-0.0929 1.39645,0.0645 0.41294,0.10087 0.88016,0.27866 1.03826,0.39508 0.25576,0.18834 0.42911,0.21168 1.57228,0.21168 1.13275,0 1.32686,-0.0256 1.63986,-0.21628 0.19527,-0.11896 0.58327,-0.24899 0.86222,-0.28897 0.27896,-0.04 0.59691,-0.1207 0.70659,-0.17938 0.10966,-0.0587 0.91227,-0.21153 1.78358,-0.33966 1.51614,-0.22294 1.61434,-0.22591 2.28582,-0.069 0.53061,0.124 1.33212,0.16978 3.28829,0.18785 1.5799,0.0146 2.69822,0.0673 2.87329,0.13539 0.15765,0.0613 0.49329,0.2537 0.74588,0.42749 0.44768,0.308 0.49928,0.31815 2.04643,0.40233 0.87296,0.0475 1.97519,0.13688 2.44941,0.19863 0.63756,0.083 1.06043,0.0821 1.623,-0.003 1.62531,-0.24723 1.61504,-0.24778 2.48701,0.13215 0.44534,0.19404 1.00899,0.38522 1.25256,0.42485 0.24357,0.0396 0.65218,0.16465 0.90802,0.27782 0.41888,0.18529 0.65287,0.20393 2.35257,0.18742 1.77646,-0.0173 1.90327,-0.006 2.15719,0.19388 0.14838,0.11671 0.52854,0.254321 0.8448,0.305791 0.31627,0.0515 0.58709,0.10638 0.60183,0.12201 0.0859,0.0911 1.21567,1.807 1.42549,2.16504 0.22634,0.38621 0.23974,0.47027 0.13874,0.86989 -0.0615,0.2433 -0.16057,0.66102 -0.22016,0.92825 -0.0642,0.28806 -0.18516,0.52699 -0.29698,0.58684 -0.2338,0.12512 -0.26176,0.81978 -0.0404,1.00349 0.0815,0.0677 0.17891,0.2216 0.21641,0.34209 0.0375,0.12049 0.20044,0.38718 0.36207,0.59264 0.58665,0.74569 0.68502,1.27332 0.60482,3.24398 l -0.0716,1.75864 0.30831,0.59924 c 0.34243,0.66555 0.35906,0.91406 0.20685,3.09144 -0.0731,1.0458 -0.10635,1.18455 -0.35249,1.47084 -0.14948,0.17386 -0.42175,0.54434 -0.60504,0.8233 -0.18329,0.27895 -0.50074,0.66695 -0.70546,0.86221 -0.20472,0.19527 -0.5436,0.57017 -0.75308,0.83311 -0.20948,0.26294 -0.50135,0.53682 -0.64862,0.60862 -0.53415,0.26045 -0.52752,1.2054 0.0121,1.72774 0.27663,0.26776 0.46592,0.77894 0.46592,1.2582 0,0.33157 0.17074,0.57862 0.55119,0.79757 0.11538,0.0664 0.19763,0.27364 0.23295,0.58698 0.0372,0.33038 0.11475,0.51654 0.24385,0.58563 0.26137,0.13988 0.23672,0.43825 -0.0629,0.76157 -0.1387,0.14967 -0.424,0.6199 -0.63398,1.04496 -0.21881,0.44293 -0.59206,0.98517 -0.87436,1.27024 -0.38324,0.38699 -0.5383,0.64593 -0.69857,1.16653 -0.18989,0.61679 -0.21156,1.05005 -0.27703,5.53813 -0.0495,3.39548 -0.11098,5.04557 -0.20305,5.45244 -0.13065,0.57741 -0.12828,0.59163 0.23058,1.37666 0.19943,0.43628 0.39243,0.91213 0.42891,1.05746 0.11295,0.45004 0.38695,0.60345 1.23717,0.69265 0.43391,0.0455 1.07723,0.0852 1.42958,0.0882 1.00008,0.009 1.03048,0.0432 1.00703,1.14856 -0.0148,0.69817 0.0277,1.0654 0.16732,1.44357 0.14452,0.39157 0.19022,0.82157 0.20047,1.88637 0.01,1.01726 0.0506,1.42409 0.1553,1.55031 0.0781,0.0941 0.171,0.48713 0.2064,0.87337 0.0484,0.52761 0.12062,0.76212 0.29053,0.94298 0.18576,0.19774 0.22366,0.34797 0.2122,0.84128 -0.0426,1.83685 0.0258,2.83594 0.22037,3.2157 0.23504,0.45884 0.24217,0.67578 0.0438,1.32985 -0.14222,0.46878 -0.13883,0.515 0.0615,0.83915 0.18097,0.29283 0.20156,0.43308 0.14063,0.95805 -0.0674,0.58034 -0.0536,0.63974 0.24391,1.05402 0.17339,0.24146 0.31528,0.52852 0.31528,0.63792 0,0.10939 0.0685,0.39296 0.15215,0.63015 0.20563,0.58281 0.19138,0.99598 -0.0507,1.47085 -0.24377,0.47814 -0.26147,1.03772 -0.0427,1.35004 0.36429,0.52011 0.37706,1.51185 0.0231,1.7925 -0.321,0.25451 -0.58955,1.01624 -0.59076,1.67574 -0.001,0.36264 -0.0576,0.75893 -0.12651,0.88066 -0.96825,1.71023 -1.01383,1.81352 -1.15082,2.60853 -0.0779,0.45205 -0.19329,0.94891 -0.25643,1.10415 -0.16355,0.40208 -0.0289,1.49857 0.27172,2.21282 0.33321,0.79168 0.3487,1.88742 0.035,2.4728 -0.17651,0.32933 -0.20134,0.49069 -0.14027,0.91143 0.0871,0.60015 0.0865,0.74303 -0.006,1.44307 -0.0578,0.43736 -0.0333,0.58476 0.14561,0.87419 0.11834,0.19148 0.21516,0.41158 0.21516,0.48913 0,0.0775 0.11412,0.35535 0.2536,0.61736 0.13947,0.26201 0.25359,0.53112 0.25359,0.59803 0,0.0669 0.11811,0.37132 0.26247,0.67647 0.23919,0.5056 0.25925,0.64592 0.22619,1.58207 -0.0335,0.94889 -0.0605,1.06423 -0.35317,1.51201 -0.4034,0.61708 -0.48384,1.04728 -0.30089,1.60907 0.0792,0.24316 0.19993,0.81814 0.26833,1.27773 0.10773,0.72387 0.1702,0.88422 0.46718,1.19911 l 0.34283,0.3635 v 2.583 c 0,2.12333 0.027,2.62426 0.15191,2.81485 0.0841,0.12834 0.17875,0.59095 0.21204,1.03617 0.0778,1.04022 0.2078,1.4512 0.50151,1.58503 0.43325,0.1974 0.47449,0.49664 0.35508,2.57675 -0.0605,1.05451 -0.13593,2.15457 -0.16755,2.44458 -0.0426,0.39085 -0.0157,0.58697 0.10411,0.75799 0.12665,0.18082 0.16159,0.50158 0.16159,1.48372 v 1.25302 l -0.41344,0.69593 c -0.2274,0.38276 -0.51269,0.80359 -0.63399,0.93518 -0.67754,0.73502 -0.77844,0.90753 -0.77706,1.32847 0.002,0.64187 0.0908,0.85136 0.41789,0.98685 0.52952,0.21932 0.57511,0.58551 0.16044,1.2885 -0.13324,0.22588 -0.19278,0.5106 -0.18813,0.89974 0.004,0.33139 -0.0597,0.69782 -0.15228,0.87688 -0.23714,0.45859 -0.23299,1.22025 0.008,1.48691 0.16699,0.18472 0.19603,0.36636 0.19221,1.20276 -0.004,0.8092 -0.0434,1.05698 -0.22207,1.38702 -0.11965,0.22102 -0.21756,0.55631 -0.21756,0.74508 0,0.3029 -0.46031,1.31963 -0.71842,1.58683 -0.0512,0.053 -0.0931,0.33148 -0.0931,0.61885 0,0.92071 -0.29682,1.36425 -0.91294,1.36425 -0.37187,0 -0.7085,0.23488 -0.83399,0.5819 -0.0924,0.25558 -0.23838,0.3986 -0.55314,0.54199 -0.23519,0.10714 -0.48261,0.1948 -0.54984,0.1948 -0.0672,0 -0.35502,0.11161 -0.63955,0.24802 -0.28452,0.13641 -0.63308,0.27177 -0.77457,0.30079 -0.14147,0.029 -0.5315,0.31684 -0.86671,0.63956 -1.06454,1.02492 -1.10658,1.03824 -3.39001,1.07496 -1.61606,0.026 -2.03743,0.0631 -2.30266,0.20292 -0.38074,0.20069 -0.75189,0.22057 -0.92305,0.0494 -0.0669,-0.0669 -0.12173,-0.38433 -0.12173,-0.70528 0,-0.67041 -0.13542,-1.03277 -0.46719,-1.25016 -0.24523,-0.16069 -1.90986,-0.1887 -6.532,-0.10994 -1.89461,0.0323 -2.0025,0.0235 -2.55824,-0.20828 -0.31911,-0.1331 -0.66415,-0.24199 -0.76675,-0.24199 -0.1026,0 -0.27515,-0.067 -0.38345,-0.14893 -0.26426,-0.19987 -1.19417,-0.19631 -2.09255,0.008 -0.58357,0.13274 -0.82377,0.14226 -1.27955,0.0507 -0.3086,-0.062 -0.83881,-0.11268 -1.17822,-0.11268 -0.76298,0 -1.89554,-0.22915 -2.20545,-0.44623 -0.18084,-0.12666 -0.49557,-0.1624 -1.43017,-0.1624 -1.11585,0 -1.21205,-0.0157 -1.39813,-0.22823 -0.10991,-0.12553 -0.35933,-0.40641 -0.55429,-0.62419 -0.19494,-0.21778 -0.35445,-0.4418 -0.35445,-0.49784 0,-0.056 -0.27388,-0.36494 -0.60862,-0.68644 -0.6498,-0.62411 -0.70407,-0.78452 -0.46165,-1.36471 0.12119,-0.29005 0.20013,-0.35178 0.44987,-0.35178 1.02588,0 1.09893,-0.58401 0.18021,-1.4407 -0.69765,-0.65055 -2.19753,-0.97291 -4.69814,-1.00973 l -1.53729,-0.0226 -0.79577,0.45344 c -0.43767,0.2494 -1.024,0.55765 -1.30295,0.68499 -0.27896,0.12736 -0.59848,0.28233 -0.71007,0.34439 -0.11158,0.0621 -0.44459,0.24045 -0.74002,0.3964 -0.29544,0.15594 -0.72908,0.41785 -0.96366,0.58201 -0.23458,0.16415 -0.72321,0.401 -1.08585,0.52631 -0.36264,0.12533 -0.80787,0.36668 -0.98941,0.53632 -0.25474,0.23807 -0.4168,0.30571 -0.71007,0.29638 -0.55154,-0.0175 -0.80584,0.0497 -0.87562,0.23158 -0.0832,0.21684 0.0938,0.5229 0.34928,0.604 0.13611,0.0432 0.198,0.13655 0.17763,0.26792 -0.0248,0.15979 -0.30493,0.29706 -1.34996,0.66151 -0.72528,0.25293 -1.58848,0.49651 -1.91822,0.5413 -0.32975,0.0448 -2.175399,0.0829 -4.101449,0.0846 -3.2686,0.003 -3.51897,0.0159 -3.75781,0.19425 -0.14074,0.10508 -0.29428,0.33921 -0.3412,0.52028 -0.0869,0.33521 -0.53277,0.61922 -0.97223,0.61922 -0.10608,0 -0.41566,0.1743 -0.68796,0.38733 -0.5542,0.43357 -1.28225,0.76806 -2.02623,0.9309 -0.27368,0.0599 -0.63454,0.17156 -0.80191,0.24813 -0.16737,0.0765 -0.69582,0.17101 -1.17433,0.20989 -0.76171,0.0619 -0.92834,0.0441 -1.33848,-0.14271 -0.25766,-0.11739 -0.55354,-0.21342 -0.65752,-0.21342 -0.10398,0 -0.27766,-0.0654 -0.38595,-0.14533 -0.15782,-0.11648 -0.17174,-0.17084 -0.0701,-0.27388 0.0697,-0.0707 0.12679,-0.22731 0.12679,-0.34802 0,-0.12071 0.12338,-0.34286 0.27418,-0.49365 0.36566,-0.36567 0.24046,-0.55786 -0.52817,-0.81076 -0.5637,-0.18548 -0.61627,-0.18673 -1.0706,-0.0254 -0.59271,0.21051 -0.8004,0.21276 -1.08734,0.0118 -0.28134,-0.19706 -0.28412,-0.35272 -0.0119,-0.66343 0.32132,-0.36668 0.39503,-0.64003 0.39503,-1.46489 0,-0.56939 0.0545,-0.86374 0.2251,-1.21479 0.31777,-0.65407 0.20469,-0.79512 -0.692,-0.86315 -0.43159,-0.0327 -0.85689,-0.13638 -1.1101,-0.27049 -0.59449,-0.31487 -0.95664,-0.3508 -2.42978,-0.24103 -1.7095,0.12736 -2.29137,0.24201 -2.87017,0.56551 -0.30935,0.17289 -0.7014,0.28598 -1.13033,0.32603 -0.69174,0.0646 -1.06411,0.27585 -1.79899,1.02059 -0.25332,0.25671 -0.40629,0.32619 -0.71821,0.32619 -0.31979,0 -0.48294,0.0782 -0.84467,0.40498 -0.24657,0.22274 -0.52675,0.43076 -0.62261,0.46228 -0.0959,0.0315 -0.27516,0.23677 -0.39845,0.45613 -0.12328,0.21936 -0.30222,0.42361 -0.39764,0.45389 -0.0954,0.0303 -0.29123,0.233 -0.43516,0.4505 -0.19015,0.28734 -0.50518,0.52707 -1.15251,0.87704 -0.48995,0.26488 -1.04977,0.5876 -1.24404,0.71714 -0.33347,0.22236 -0.44692,0.23567 -2.02875,0.23796 -2.0945,0.003 -2.32598,0.0544 -2.87143,0.63736 -0.40063,0.42818 -0.46926,0.46093 -1.10717,0.52829 -0.37404,0.0395 -1.03592,0.0445 -1.47085,0.011 -1.1278,-0.0867 -1.16407,-0.0856 -1.28772,0.0383 -0.0614,0.0616 -0.11168,0.30352 -0.11168,0.53771 v 0.42579 l -1.21725,0.0132 c -1.06705,0.0116 -1.29502,0.046 -1.84759,0.27871 l -0.63033,0.26548 -6.76603,-0.0402 -6.76603,-0.0402 -0.21145,0.26109 c -0.41094,0.50744 -1.04812,1.1384 -1.13639,1.12533 -0.0492,-0.007 -0.29484,-0.0677 -0.5459,-0.13423 z m 63.981719,-8.29802 c 0.0697,-0.055 0.1268,-0.25633 0.1268,-0.44731 0,-0.63993 -0.62643,-1.00962 -1.26797,-0.74828 -0.13592,0.0554 -0.30331,0.0234 -0.50719,-0.097 -0.57776,-0.34106 -0.74909,-0.34817 -0.86776,-0.0361 -0.19115,0.50278 0.25595,1.36666 0.76632,1.48064 0.31854,0.0711 1.60914,-0.041 1.7498,-0.15199 z m -2.40914,-2.104 c 0,-0.11158 -0.0457,-0.20287 -0.10144,-0.20287 -0.0558,0 -0.10144,0.0913 -0.10144,0.20287 0,0.11158 0.0457,0.20288 0.10144,0.20288 0.0558,0 0.10144,-0.0913 0.10144,-0.20288 z M 36.396591,102.94737 c 0.38756,-0.253 0.70466,-0.52688 0.70466,-0.60862 0,-0.25011 -0.38844,-0.55439 -0.70772,-0.55439 -0.31593,0 -0.52157,0.2202 -0.66312,0.71007 -0.0403,0.13947 -0.14189,0.33177 -0.22574,0.42733 -0.15975,0.18204 -0.11147,0.4856 0.0772,0.4856 0.0605,0 0.42712,-0.20699 0.81468,-0.45999 z m -15.20883,120.67311 c -0.0974,-0.0617 -0.1201,-0.19222 -0.0746,-0.42956 0.13926,-0.72634 0.18608,-2.94228 0.0711,-3.36561 -0.0634,-0.2333 -0.1783,-0.85782 -0.25542,-1.38783 -0.13921,-0.95683 -0.13839,-0.96748 0.11489,-1.50371 0.24991,-0.52908 0.25165,-0.54904 0.0858,-0.98317 -0.15026,-0.39345 -0.15248,-0.46938 -0.0198,-0.67721 0.19928,-0.31223 0.19768,-1.25733 -0.003,-1.72584 -0.15882,-0.37094 -0.15659,-0.38282 0.16698,-0.88706 0.32321,-0.50367 0.32608,-0.51884 0.19768,-1.04416 -0.0717,-0.29319 -0.11831,-0.85259 -0.10366,-1.24313 0.0146,-0.39053 0.025,-0.86982 0.023,-1.06509 -0.002,-0.19527 0.004,-0.76586 0.0128,-1.26797 0.0458,-2.55147 -0.0424,-4.61906 -0.21558,-5.05316 -0.0833,-0.20867 -0.0839,-0.34185 -0.002,-0.49445 0.0658,-0.12293 0.11109,-0.77012 0.11011,-1.57305 -0.002,-1.31823 -0.011,-1.37761 -0.27771,-1.76253 -0.15183,-0.21909 -0.32919,-0.39834 -0.39413,-0.39834 -0.24707,0 -0.33765,0.21411 -0.25005,0.59111 0.1015,0.43681 0.1179,1.25056 0.0298,1.48006 -0.0339,0.0882 -0.12949,0.16045 -0.21249,0.16045 -0.12613,0 -0.14679,-0.18738 -0.12585,-1.14117 0.0138,-0.62764 -0.0114,-1.4952 -0.056,-1.92789 -0.0695,-0.67458 -0.12387,-0.83148 -0.38112,-1.10067 -0.246,-0.2574 -0.2887,-0.3705 -0.23718,-0.6281 0.0873,-0.43632 0.33331,-0.78123 0.55731,-0.78123 0.12661,0 0.2812,0.18332 0.4711,0.55867 l 0.28266,0.55865 -0.23041,0.24526 c -0.20098,0.21394 -0.2215,0.31 -0.16068,0.75218 0.0895,0.6505 0.27127,0.92304 0.49299,0.73903 0.40359,-0.33494 0.48342,-0.88904 0.52149,-3.61956 0.0537,-3.84885 0.0488,-4.12477 -0.0776,-4.35242 -0.0633,-0.11401 -0.10132,-0.27381 -0.0845,-0.35514 0.0168,-0.0813 -0.0155,-0.30956 -0.0718,-0.50719 -0.0563,-0.19763 -0.15698,-0.66884 -0.22379,-1.04715 -0.11926,-0.67531 -0.11643,-0.6951 0.15567,-1.08773 0.21271,-0.30696 0.26258,-0.47128 0.2145,-0.70694 -0.0344,-0.16887 -0.0907,-0.44461 -0.12507,-0.61276 -0.0343,-0.16815 -0.0102,-0.43173 0.0536,-0.58574 0.11041,-0.26655 0.0799,-0.64835 -0.15148,-1.89806 -0.0477,-0.25784 0.0124,-0.37791 0.39393,-0.78615 0.44915,-0.48062 0.76271,-0.59594 0.96327,-0.35427 0.0582,0.0702 0.13857,0.72926 0.17855,1.46469 0.067,1.23256 0.0914,1.35345 0.31231,1.5455 0.31004,0.26958 0.30468,0.56815 -0.014,0.77693 -0.28635,0.18762 -0.32809,0.501 -0.10026,0.75275 0.13446,0.14858 0.13561,0.21963 0.009,0.57745 -0.0824,0.2337 -0.14923,0.83649 -0.15629,1.41084 -0.007,0.55155 -0.0141,1.09411 -0.0164,1.20569 -0.002,0.11158 -0.0209,1.11288 -0.0415,2.22511 -0.0206,1.11223 -0.0645,2.12988 -0.0975,2.26145 -0.033,0.13158 -0.005,0.50775 0.0632,0.83594 0.10851,0.52534 0.10155,0.64485 -0.0582,0.99903 -0.14435,0.32011 -0.16034,0.47188 -0.0783,0.74285 0.2751,0.90825 0.30482,1.22294 0.15038,1.59256 -0.098,0.2346 -0.12995,0.5091 -0.0899,0.77312 0.0341,0.22516 0.0819,1.32207 0.10609,2.43758 0.0429,1.97621 0.0501,2.03264 0.27808,2.20103 0.70091,0.51766 0.74547,0.66509 0.21453,0.70972 -0.33315,0.028 -0.38474,0.0707 -0.46702,0.38652 -0.0509,0.19527 -0.0615,0.7202 -0.0236,1.16653 0.0916,1.07928 0.0913,0.93849 0.0112,4.80914 -0.0764,3.69182 -0.0578,3.85701 0.45694,4.07024 0.39031,0.16168 0.37519,0.37566 -0.0341,0.48204 l -0.32967,0.0857 -0.008,0.90622 c -0.0172,1.87554 -0.15487,5.88621 -0.2104,6.13015 -0.12246,0.53795 -0.85535,0.96344 -1.23993,0.71986 z m 140.275899,-17.2033 c -0.053,-0.13945 -0.0699,-0.38629 -0.0374,-0.54855 0.074,-0.37007 -0.15876,-0.51658 -0.82068,-0.51658 -0.41279,0 -0.47856,-0.0317 -0.57936,-0.27896 -0.0625,-0.15342 -0.11841,-0.59848 -0.12417,-0.98901 -0.0108,-0.73512 -0.006,-0.74997 0.77977,-2.23163 0.16515,-0.31154 0.21716,-0.59762 0.22401,-1.23218 0.008,-0.77315 0.0339,-0.86688 0.39632,-1.45407 0.37063,-0.60047 0.39138,-0.68108 0.47937,-1.86167 0.0506,-0.67871 0.18884,-1.63168 0.30725,-2.11772 0.20627,-0.8467 0.2083,-0.90857 0.0487,-1.4775 -0.10539,-0.37563 -0.16661,-0.97838 -0.16661,-1.64053 0,-1.3894 -0.30838,-3.2458 -0.82267,-4.95225 -0.23129,-0.76749 -0.23622,-1.03712 -0.0394,-2.15342 0.19123,-1.08453 0.23874,-6.06334 0.0657,-6.88107 -0.063,-0.29767 -0.22254,-0.75619 -0.3545,-1.01892 -0.13197,-0.26274 -0.27067,-0.70389 -0.30826,-0.98034 -0.0376,-0.27645 -0.15454,-0.70805 -0.25993,-0.95911 -0.36989,-0.88111 -0.44885,-2.25101 -0.26992,-4.68298 0.0889,-1.20877 0.20768,-2.31868 0.26386,-2.46646 0.12809,-0.3369 0.12983,-0.84279 0.005,-1.56808 -0.0532,-0.3102 -0.1472,-0.97483 -0.20884,-1.47695 -0.11215,-0.9135 -0.50871,-2.26014 -0.70047,-2.37865 -0.056,-0.0346 -0.17708,-0.24394 -0.26901,-0.46515 -0.0919,-0.22121 -0.29915,-0.59855 -0.4605,-0.83855 -0.48206,-0.71699 -0.57782,-0.95869 -0.78852,-1.99007 -0.11073,-0.54205 -0.24444,-1.0395 -0.29713,-1.10544 -0.0527,-0.0659 -0.1286,-0.4354 -0.16868,-0.82104 -0.0401,-0.38563 -0.14007,-0.95622 -0.22218,-1.26797 -0.34687,-1.31691 -0.37182,-5.56518 -0.0364,-6.192 0.0672,-0.12551 0.16229,-0.50884 0.21135,-0.85182 0.0491,-0.34299 0.18191,-0.80445 0.29519,-1.02546 0.11329,-0.22101 0.20598,-0.56567 0.20598,-0.76592 0,-0.20024 0.0903,-0.77259 0.20069,-1.27188 0.11037,-0.49929 0.20327,-1.13603 0.20643,-1.41498 0.003,-0.27896 0.0745,-0.80389 0.15851,-1.16653 0.084,-0.36264 0.21647,-1.22993 0.29433,-1.92732 0.15437,-1.3825 0.42896,-2.67827 0.75238,-3.55031 0.11381,-0.30685 0.20841,-0.74784 0.21023,-0.97998 0.002,-0.23214 0.094,-0.71143 0.20488,-1.06509 0.11086,-0.35366 0.20215,-0.74873 0.20287,-0.87792 0.004,-0.63266 0.5285,-0.84108 0.90688,-0.36005 0.15092,0.19186 0.21024,0.41477 0.21024,0.78997 0,0.37206 0.10463,0.77007 0.36307,1.38109 0.30138,0.71253 0.38807,1.08884 0.51017,2.21466 0.0809,0.74595 0.20102,1.45348 0.26692,1.57228 0.0871,0.15703 0.12659,1.71383 0.14459,5.70193 0.0202,4.47597 0.0519,5.56843 0.17226,5.9341 0.26592,0.80799 0.5028,2.45092 0.48145,3.33914 -0.0513,2.13586 -0.0441,2.30125 0.12119,2.76771 0.0946,0.26696 0.17198,0.77491 0.17198,1.12879 0,0.35387 0.0685,0.80728 0.15215,1.00757 0.19759,0.4729 0.19947,1.4866 0.003,1.74605 -0.10297,0.13614 -0.1501,0.46298 -0.15273,1.05913 -0.004,1.00933 -0.1316,1.54934 -0.47069,1.99872 -0.34465,0.45676 -0.37852,0.76418 -0.19758,1.79311 0.23085,1.31265 0.21087,2.29538 -0.0558,2.74742 -0.18027,0.30554 -0.20298,0.45352 -0.14313,0.93264 0.0391,0.31321 0.13723,0.78004 0.21798,1.0374 0.10703,0.34109 0.15939,1.21028 0.19318,3.20674 0.0399,2.35413 0.0224,2.82429 -0.12425,3.34743 -0.0939,0.33475 -0.17344,0.90533 -0.17687,1.26797 -0.004,0.37659 -0.0687,0.7681 -0.15193,0.91294 -0.21421,0.37284 -0.16825,4.40945 0.0581,5.10425 0.10056,0.30865 0.13273,0.60778 0.0873,0.8115 -0.0825,0.36953 -0.17194,2.21437 -0.15832,3.26434 0.005,0.39054 0.0961,1.07524 0.20228,1.52157 0.11764,0.49439 0.21793,1.40485 0.25668,2.32998 0.0452,1.07907 0.10436,1.56353 0.20447,1.67415 0.1882,0.20796 0.26299,2.05103 0.26295,6.48008 -3e-5,2.39158 -0.0352,3.52734 -0.11195,3.61987 -0.0615,0.0742 -0.24513,0.1641 -0.40797,0.19987 -0.29581,0.065 -0.70429,0.47488 -0.70429,0.70676 0,0.15246 -0.32862,0.4585 -0.49233,0.4585 -0.0667,0 -0.1647,-0.11409 -0.21772,-0.25355 z M 21.448461,174.54041 c -0.0239,-0.0418 -0.076,-0.25624 -0.11576,-0.47644 -0.0398,-0.22019 -0.15993,-0.51164 -0.26692,-0.64766 -0.23526,-0.29909 -0.24191,-0.44272 -0.0387,-0.83569 0.14323,-0.27697 0.13885,-0.35837 -0.0541,-1.00634 -0.11548,-0.38775 -0.20358,-0.92317 -0.19578,-1.18982 0.008,-0.26665 -0.0413,-0.69023 -0.10908,-0.94129 -0.15515,-0.57457 -0.15816,-0.94971 -0.012,-1.4975 0.10635,-0.39868 0.0916,-0.47956 -0.18977,-1.03684 -0.27442,-0.54363 -0.39205,-1.01597 -0.25302,-1.01597 0.0286,0 0.14595,0.0571 0.26067,0.1268 0.18391,0.1118 0.23765,0.0908 0.45459,-0.17752 0.28358,-0.35078 0.31008,-0.68651 0.0949,-1.2016 -0.16493,-0.39473 -0.20568,-1.88301 -0.0685,-2.50087 0.11731,-0.52827 -0.0595,-3.29612 -0.23784,-3.72291 -0.19459,-0.46572 -0.18979,-0.73128 0.0174,-0.96019 0.1451,-0.16034 0.16616,-0.46558 0.15739,-2.28098 -0.009,-1.93255 0.005,-2.11545 0.18751,-2.34714 0.24396,-0.31015 0.25309,-0.70822 0.0238,-1.03565 -0.1222,-0.17446 -0.16587,-0.40735 -0.14689,-0.78335 0.0685,-1.35678 -0.0179,-2.32581 -0.25766,-2.89118 -0.12918,-0.30461 -0.13573,-0.4077 -0.0337,-0.53063 0.35592,-0.42886 0.13223,-5.21624 -0.28854,-6.17502 -0.24121,-0.54967 -0.39406,-0.5713 -0.62087,-0.0879 -0.0842,0.1794 -0.21822,0.31278 -0.30001,0.2985 -0.20855,-0.0364 -0.44924,-0.88647 -0.31458,-1.11102 0.0572,-0.0954 0.0771,-0.30799 0.0442,-0.47248 -0.0476,-0.2378 -0.0153,-0.32293 0.1577,-0.41549 0.4527,-0.24228 0.85022,0.22826 0.49387,0.58461 -0.0947,0.0947 -0.0721,0.12172 0.10144,0.12172 0.20493,0 0.22316,-0.0493 0.22316,-0.60387 v -0.60386 l -0.48183,-0.2396 c -0.44083,-0.21922 -0.4842,-0.27356 -0.50976,-0.63875 -0.0154,-0.21952 -0.14012,-0.62737 -0.27723,-0.90632 -0.13711,-0.27896 -0.27775,-0.65131 -0.31253,-0.82745 -0.0533,-0.26982 -0.0215,-0.3476 0.20175,-0.49389 0.22436,-0.147 0.31125,-0.15446 0.56673,-0.0486 0.16596,0.0687 0.41131,0.0975 0.54523,0.0639 0.30255,-0.0759 0.61381,-0.68458 0.51282,-1.00278 -0.0672,-0.21179 -0.10773,-0.84276 -0.16824,-2.62053 -0.0159,-0.46595 -0.0809,-0.83642 -0.16466,-0.93736 -0.0909,-0.10954 -0.11558,-0.28054 -0.0719,-0.49751 0.0571,-0.28361 0.17073,-2.73823 0.17736,-3.83019 0.004,-0.61663 -0.17367,-1.76567 -0.31117,-2.0154 -0.11207,-0.20353 -0.1056,-0.29941 0.0424,-0.62751 0.19609,-0.43486 0.14559,-1.14616 -0.10487,-1.47697 -0.186,-0.24568 -0.1875,-0.48616 -0.005,-0.83863 0.12754,-0.24664 0.12653,-0.36758 -0.008,-0.95721 -0.0847,-0.3712 -0.23869,-0.77824 -0.34226,-0.90455 -0.16743,-0.20418 -0.21304,-0.21455 -0.41138,-0.0935 -0.28932,0.17657 -0.39506,0.0272 -0.39721,-0.56127 -0.002,-0.51947 0.14137,-0.63144 0.40696,-0.31804 0.19636,0.23171 0.20273,0.23242 0.3522,0.0391 0.19753,-0.25551 0.19421,-0.65366 -0.007,-0.87634 -0.14542,-0.16068 -0.14317,-0.20627 0.0254,-0.51517 0.32469,-0.59514 0.22796,-3.53255 -0.16983,-5.15718 -0.0997,-0.40705 -0.29417,-1.73018 -0.31314,-2.13019 -0.004,-0.0837 0.0229,-0.33474 0.0597,-0.5579 0.0401,-0.2429 0.002,-0.7111 -0.0935,-1.16653 -0.0882,-0.41843 -0.16043,-0.97464 -0.16048,-1.23601 -9e-5,-0.55679 -0.13486,-0.95922 -0.42494,-1.2689 -0.15839,-0.1691 -0.19404,-0.30312 -0.14841,-0.55791 0.033,-0.18444 0.0863,-0.99908 0.11845,-1.81032 0.0635,-1.60387 0.28731,-2.72171 0.64577,-3.22511 0.11814,-0.16592 0.2148,-0.33337 0.2148,-0.37211 0,-0.13432 0.34498,-0.811541 0.45118,-0.885701 0.0587,-0.041 0.29747,-0.0752 0.53059,-0.0761 0.54374,-0.002 0.74228,-0.20058 0.74405,-0.74422 0.003,-0.88198 0.21419,-1.07608 0.77292,-0.70999 0.20999,0.13759 0.2974,0.14697 0.45466,0.0488 0.1693,-0.10573 0.20802,-0.0865 0.29689,0.14722 0.0562,0.14784 0.19625,0.40088 0.31119,0.5623 0.20041,0.28145 0.20766,0.40272 0.1767,2.953801 -0.0316,2.60148 -0.0272,2.67007 0.19841,3.10255 0.27724,0.53146 0.47142,1.66426 0.42844,2.49943 -0.0412,0.8002 -0.0243,1.64482 0.0523,2.61892 0.0474,0.60222 0.0238,0.88949 -0.098,1.19394 -0.12888,0.32211 -0.16065,0.83414 -0.16162,2.60512 -9.1e-4,1.66598 -0.0391,2.34044 -0.15656,2.76212 -0.0883,0.31693 -0.19724,1.36845 -0.25234,2.4345 -0.14369,2.78048 -0.33419,4.31869 -0.60926,4.91972 -0.18667,0.40785 -0.23563,0.70585 -0.25001,1.52156 -0.0133,0.75428 -0.0661,1.11265 -0.20592,1.39765 -0.17463,0.35597 -0.17642,0.40295 -0.025,0.65935 0.0897,0.15183 0.1952,0.44773 0.23454,0.65755 0.0393,0.20982 0.15764,0.55041 0.2629,0.75687 0.10525,0.20646 0.19141,0.55973 0.19146,0.78504 4e-5,0.2473 0.12403,0.67099 0.31282,1.06901 0.52688,1.11083 0.62253,1.92372 0.5908,5.02115 -0.0433,4.22381 -0.0607,4.61225 -0.24329,5.42691 -0.0938,0.41843 -0.16813,1.05615 -0.16522,1.41715 0.004,0.53489 -0.0347,0.69898 -0.21097,0.88658 -0.19128,0.2036 -0.22062,0.37392 -0.25394,1.47381 -0.0207,0.68399 -0.0288,1.56314 -0.0179,1.95368 0.0109,0.39053 0.0129,1.28065 0.005,1.97803 -0.008,0.69738 -0.0161,1.76702 -0.0173,2.37697 -0.002,1.00058 -0.0272,1.15171 -0.25824,1.54593 l -0.25606,0.43694 0.0291,4.89534 c 0.0271,4.56514 0.0419,4.91827 0.21907,5.23518 0.11303,0.20215 0.2068,0.61311 0.23146,1.01437 0.0228,0.371 0.093,0.91441 0.15597,1.20757 0.0972,0.45218 0.0869,0.6143 -0.0677,1.06898 -0.16517,0.48593 -0.16783,0.56401 -0.0285,0.83639 0.27257,0.53294 0.30771,0.92042 0.11946,1.31712 -0.0958,0.20177 -0.16741,0.48921 -0.15925,0.63874 0.008,0.14953 0.0263,0.93814 0.0403,1.75248 0.0158,0.9214 0.0692,1.53438 0.14122,1.623 0.0705,0.0867 0.0954,0.34859 0.0637,0.66974 -0.0462,0.46758 -0.0944,0.55668 -0.42554,0.78614 -0.36281,0.25143 -0.76229,0.33726 -0.85041,0.18272 z m -1.23054,-37.14175 c -0.0851,-0.13766 -0.26252,-0.14006 -0.46249,-0.006 -0.13161,0.0881 -0.12539,0.12222 0.0461,0.25303 0.17086,0.13032 0.21809,0.1314 0.34168,0.008 0.0789,-0.0789 0.11249,-0.19344 0.0747,-0.25458 z m -0.5132,25.14676 c -0.0356,-0.0575 0.0497,-0.10143 0.19688,-0.10143 0.14277,0 0.25958,0.0456 0.25958,0.10143 0,0.0558 -0.0886,0.10144 -0.19688,0.10144 -0.10829,0 -0.2251,-0.0456 -0.25958,-0.10144 z m 0.0142,-10.01125 c -0.11424,-0.11424 -0.0696,-0.23393 0.0873,-0.23393 0.0837,0 0.15215,0.043 0.15215,0.0954 0,0.12791 -0.1584,0.21952 -0.23944,0.13848 z m 3.384,-7.28384 c 0,-0.15779 0.0575,-0.25359 0.15216,-0.25359 0.0947,0 0.15216,0.0958 0.15216,0.25359 0,0.15779 -0.0575,0.25359 -0.15216,0.25359 -0.0947,0 -0.15216,-0.0958 -0.15216,-0.25359 z m -4.19993,-10.96673 c -0.13193,-0.41854 -0.14954,-0.59934 -0.0665,-0.68243 0.15478,-0.15478 0.43522,0.0298 0.5548,0.36525 0.0911,0.25567 -0.0784,0.88657 -0.23826,0.88657 -0.0388,0 -0.15137,-0.25623 -0.25009,-0.56939 z m 141.421589,-1.38329 c -0.22638,-0.42377 -0.22989,-0.48258 -0.20646,-3.45769 0.0153,-1.94441 0.0665,-3.17757 0.14332,-3.44887 0.0657,-0.23226 0.14629,-0.76103 0.17904,-1.17504 0.0338,-0.42713 0.10995,-0.76936 0.17605,-0.79116 0.0641,-0.0211 0.19606,0.16993 0.29331,0.42457 0.15653,0.40989 0.17807,0.92102 0.18782,4.45682 0.0104,3.79333 0.001,4.00459 -0.18224,4.20815 -0.26785,0.2971 -0.32815,0.27498 -0.59084,-0.21678 z M 19.114741,132.7583 c -0.10119,-0.10119 -0.0848,-0.44125 0.0213,-0.44125 0.13252,0 0.23489,0.32372 0.13421,0.4244 -0.0474,0.0474 -0.11736,0.055 -0.15548,0.0169 z m -0.3122,-4.85756 c -0.1221,-0.1221 -0.14697,-0.26916 -0.0992,-0.58677 0.11776,-0.78321 0.3772,-0.76304 0.49449,0.0384 0.0508,0.34738 0.0304,0.49323 -0.0824,0.58677 -0.1203,0.0998 -0.18225,0.0922 -0.31293,-0.0385 z M 160.4295,122.10151 c -0.0728,-0.15106 -0.22363,-0.29942 -0.33521,-0.32967 -0.61276,-0.16615 -0.61016,-0.15781 -0.59055,-1.89904 0.01,-0.88267 0.0392,-1.90155 0.065,-2.26419 0.0258,-0.36264 0.0519,-0.74455 0.058,-0.84869 0.009,-0.14799 0.0609,-0.17411 0.23928,-0.1196 0.12553,0.0384 0.33932,0.0862 0.47509,0.10638 0.2529,0.0375 0.63134,0.39158 0.94907,0.88789 0.20509,0.32037 0.40719,1.15482 0.42374,1.74964 0.006,0.22342 0.0517,0.47162 0.10113,0.55156 0.1342,0.21712 0.32541,1.14555 0.27956,1.35734 -0.0222,0.10259 -0.23931,0.27033 -0.48766,0.37678 -0.30812,0.13208 -0.4476,0.25283 -0.4476,0.38749 0,0.19151 -0.18335,0.31877 -0.45923,0.31877 -0.0761,0 -0.19787,-0.12359 -0.27065,-0.27466 z m 0.12126,-3.88427 c 0,-0.0558 -0.0483,-0.10144 -0.10743,-0.10144 -0.0591,0 -0.0792,0.0456 -0.0447,0.10144 0.0345,0.0558 0.0828,0.10143 0.10742,0.10143 0.0246,0 0.0447,-0.0456 0.0447,-0.10143 z M 18.442021,118.4862 c -0.0587,-0.0587 -0.10666,-0.28012 -0.10666,-0.49213 0,-0.31237 0.0369,-0.38546 0.1946,-0.38546 0.20851,0 0.67107,0.64179 0.57481,0.79754 -0.0884,0.14306 -0.54464,0.19816 -0.66275,0.08 z m -0.25882,-5.2394 c -0.074,-0.11968 0.022,-0.30431 0.15815,-0.30431 0.0525,0 0.0954,0.0913 0.0954,0.20287 0,0.21394 -0.14758,0.27298 -0.2536,0.10144 z m 0.0169,-1.28488 c -0.0372,-0.0372 -0.0676,-0.17748 -0.0676,-0.31174 0,-0.35428 0.34497,-0.26402 0.38713,0.10128 0.0307,0.26607 -0.1469,0.38307 -0.3195,0.21046 z m 141.799309,-0.53414 c -0.22091,-0.23058 -0.35256,-0.56699 -0.58555,-1.4962 -0.27172,-1.08361 -0.30219,-1.37245 -0.31727,-3.00727 -0.0141,-1.53159 0.008,-1.82671 0.14122,-1.92731 0.0868,-0.0653 0.35076,-0.38126 0.58646,-0.70206 0.26331,-0.35835 0.50359,-0.58326 0.62311,-0.58326 0.21518,0 0.91092,0.91516 1.37272,1.80566 l 0.27885,0.53769 -0.1079,1.54732 c -0.0593,0.85103 -0.15388,1.65895 -0.21007,1.79538 -0.0562,0.13642 -0.12987,0.4604 -0.16374,0.71996 -0.0421,0.32255 -0.19027,0.65164 -0.46818,1.03973 -0.47457,0.66273 -0.71873,0.72015 -1.14965,0.27036 z m 0.65277,-3.30357 c 0,-0.1578 -0.0575,-0.2536 -0.15215,-0.2536 -0.15215,0 -0.21214,0.31196 -0.0845,0.43957 0.13791,0.13791 0.23668,0.0603 0.23668,-0.18597 z m -142.418259,2.91035 c 0,-0.0451 0.0615,-0.16616 0.13667,-0.26896 0.15399,-0.21059 0.32987,-0.0552 0.23053,0.20371 -0.059,0.15363 -0.3672,0.2084 -0.3672,0.0652 z m -0.35144,-1.33226 c -0.11099,-0.17958 0.0426,-0.31012 0.36486,-0.31012 0.2364,0 0.29813,0.0403 0.2721,0.17751 -0.0379,0.20009 -0.53172,0.30289 -0.63696,0.13261 z m 16.68149,-15.691609 c -0.30609,-0.0714 -0.77561,-0.13179 -1.04339,-0.13415 -0.26777,-0.002 -0.61012,-0.0666 -0.76078,-0.14268 -0.15065,-0.0761 -0.55881,-0.23567 -0.90703,-0.35459 -0.61481,-0.20996 -0.65497,-0.21141 -1.38936,-0.05 -0.7338,0.16124 -0.77672,0.15973 -1.44635,-0.0511 -0.37956,-0.11947 -0.8727,-0.20816 -1.09586,-0.19709 -0.27036,0.0134 -0.60884,-0.077 -1.01438,-0.27081 -1.1189,-0.53485 -1.29421,-0.85473 -0.76078,-1.388152 0.4668,-0.466795 0.40636,-0.747929 -0.2245,-1.044281 -0.39736,-0.186662 -0.53478,-0.418251 -0.42223,-0.711559 0.0552,-0.143845 0.1436,-0.164927 0.47161,-0.112476 0.54792,0.08762 0.88462,-0.131962 0.88674,-0.578276 0.003,-0.578398 0.0366,-0.590294 1.37363,-0.483367 3.96708,0.317251 7.6239,0.512678 9.63079,0.514687 0.66948,6.69e-4 1.39983,0.05161 1.623,0.113196 0.25601,0.07065 2.44591,0.139126 5.93409,0.185542 4.61305,0.06139 5.69854,0.103477 6.55635,0.254232 0.84092,0.147788 1.19167,0.162747 1.92731,0.0822 0.50309,-0.05509 1.03321,-0.06104 1.20321,-0.01352 0.16715,0.04672 0.76056,0.08811 1.31869,0.09197 0.55813,0.0039 2.37961,0.03033 4.04773,0.05881 l 3.03295,0.05178 0.77096,0.465255 c 0.42403,0.255891 0.7961,0.502664 0.82683,0.548384 0.0307,0.04572 0.037,0.24464 0.014,0.442044 -0.055,0.471096 -0.2514,0.565181 -1.38107,0.661571 -0.50622,0.0432 -1.4104,0.13189 -2.00929,0.1971 -0.66659,0.0726 -2.14187,0.1035 -3.80391,0.0797 -2.57358,-0.0368 -2.73669,-0.0506 -3.13126,-0.26422 l -0.41626,-0.225383 -5.72071,0.02861 -5.72072,0.02861 -0.5579,0.245183 c -0.30685,0.13486 -0.77564,0.3979 -1.04176,0.58455 -0.33874,0.23759 -0.82587,0.4294 -1.6243,0.63958 -0.62725,0.16512 -1.40948,0.39278 -1.7383,0.5059 -0.37228,0.12809 -0.86932,0.20736 -1.31738,0.21011 -0.39575,0.002 -0.90276,0.04 -1.12668,0.0834 -0.25443,0.0494 -0.61588,0.0303 -0.96366,-0.0508 z m 39.45178,-2.680133 c -0.19043,-0.03105 -0.46035,-0.128636 -0.59983,-0.216848 -0.13947,-0.08821 -0.43618,-0.191285 -0.65934,-0.22905 -0.22316,-0.03776 -0.58834,-0.154332 -0.8115,-0.259037 -0.2459,-0.115374 -0.74156,-0.212164 -1.25817,-0.245689 -0.46883,-0.03042 -0.87694,-0.07983 -0.9069,-0.109795 -0.03,-0.02996 0.019,-0.127963 0.10882,-0.217775 0.14438,-0.144386 0.27289,-0.149598 1.10977,-0.045 0.56304,0.07037 1.58345,0.09663 2.51876,0.06483 0.86476,-0.02941 2.17091,-0.006 2.90257,0.0521 1.16063,0.0921 1.3833,0.08436 1.74589,-0.06072 0.3875,-0.155047 0.4513,-0.154433 0.94359,0.0091 0.4683,0.155545 0.97041,0.173185 4.4418,0.156047 8.40854,-0.04151 8.84597,-0.03553 9.55777,0.130706 0.56919,0.132933 0.89132,0.140387 2.07947,0.04812 1.8027,-0.139985 5.808549,-0.136096 5.950419,0.0058 0.18631,0.186308 -0.13829,0.220754 -2.422819,0.25711 -1.2227,0.01946 -3.68379,0.07992 -5.46909,0.134357 -3.04485,0.09284 -3.28372,0.113823 -3.85463,0.338525 l -0.60862,0.239546 -7.21087,0.0021 c -3.96598,0.0012 -7.36667,-0.02332 -7.55709,-0.05437 z"
       id="path235492" /><path
       style="fill:#000000;stroke-width:0.582402"
       id="path239856"
       d="" /><path
       style="fill:#ffffff;fill-opacity:1;stroke-width:0.278409"
       d="m 89.972461,210.89286 c -1.685484,-0.67474 -3.7239,-3.09185 -5.078297,-6.02175 -0.439211,-0.95008 -1.349849,-3.33048 -2.023659,-5.28975 -1.702783,-4.95138 -2.12523,-5.92883 -2.56235,-5.92883 -0.209218,0 -1.154965,1.15888 -2.101864,2.57529 -2.244242,3.35696 -3.579646,4.94953 -4.941884,5.89355 -1.238855,0.85855 -2.007534,0.79807 -2.459281,-0.19337 -0.156234,-0.34265 -1.273296,-1.74967 -2.48258,-3.12675 -4.422843,-5.03644 -5.670346,-6.95103 -5.670346,-8.7025 0,-1.53756 2.136732,-4.13151 4.382424,-5.32027 0.792838,-0.41969 1.991888,0.14332 2.838955,1.33285 1.159605,1.62852 4.222679,1.83783 6.916721,0.47266 2.540274,-1.28727 5.598366,-4.19115 5.021338,-4.76816 -0.05594,-0.0561 -1.163003,-0.23473 -2.460233,-0.39741 -4.08209,-0.51184 -6.066053,-1.87769 -7.825195,-5.38723 -0.47636,-0.95042 -0.914022,-1.78031 -0.972533,-1.8442 -0.05842,-0.0637 -1.202558,0.64036 -2.542288,1.56507 -4.724716,3.26102 -8.388096,4.64845 -12.319431,4.66572 -2.211819,0.009 -2.524287,-0.0652 -4.781211,-1.14476 -3.88118,-1.85671 -7.468797,-4.5909 -7.468797,-5.69211 0,-0.75677 1.719563,-1.35709 4.700896,-1.64115 1.532443,-0.14604 3.576024,-0.52885 4.541263,-0.85074 3.745846,-1.24915 8.445949,-4.36839 14.887353,-9.88002 4.257979,-3.64333 17.668166,-16.7949 18.503679,-18.14684 0.497689,-0.80526 0.559551,-1.20361 0.40255,-2.59143 -0.161445,-1.42706 -0.11168,-1.71381 0.383702,-2.20917 0.725944,-0.72594 0.806877,-0.71988 3.61836,0.2715 3.2106,1.13211 3.913928,1.09523 5.40969,-0.28348 1.187767,-1.09488 2.670422,-3.44127 2.366531,-3.74518 -0.419889,-0.41986 -3.75141,-0.74381 -6.808535,-0.662 -4.148547,0.11101 -4.025142,0.0252 -6.518763,4.5392 -2.004507,3.6287 -3.159245,5.15733 -3.895929,5.15733 -0.772233,0 -3.045096,-2.69177 -3.996433,-4.73296 -0.463906,-0.99532 -0.959602,-1.88814 -1.101572,-1.98408 -0.141971,-0.0961 -0.902202,-0.007 -1.689357,0.19586 -6.327828,1.63715 -13.7174,1.95129 -16.897309,0.71838 -4.260947,-1.65203 -5.161225,-5.75269 -1.964738,-8.94917 2.38578,-2.38578 4.355728,-2.66902 12.001819,-1.72558 2.526552,0.31174 5.331544,0.64192 6.233294,0.73372 l 1.639521,0.16687 -0.141972,-1.7685 c -0.1114,-1.38862 -0.483582,-2.49582 -1.732333,-5.15439 -1.864748,-3.97004 -1.98403,-5.00218 -0.854199,-7.39047 1.340137,-2.83282 2.782461,-3.33497 6.605631,-2.29983 1.423464,0.3854 3.840968,0.89839 5.372205,1.13995 4.307895,0.6796 6.816889,2.21878 6.819767,4.18371 0.0012,0.71704 -1.311238,3.48589 -2.870015,6.05541 -1.937611,3.19402 -1.939906,3.16736 0.288868,3.36646 1.037517,0.0926 4.105188,0.0662 6.817049,-0.0593 5.034277,-0.23252 5.788107,-0.41651 5.788107,-1.4127 0,-0.85394 -2.390771,-5.40462 -3.855287,-7.33829 -0.788971,-1.04171 -1.434494,-2.06555 -1.434494,-2.2752 0,-0.74054 2.332456,-2.36122 6.369801,-4.42601 l 4.08509,-2.08919 2.842,1.89648 c 5.00733,3.34139 8.41902,6.42286 8.41902,7.60404 0,0.60937 -0.96074,2.16075 -2.56863,4.14769 -1.89131,2.33722 -2.44271,3.20189 -2.44271,3.8306 0,0.75528 0.74574,0.76077 4.20345,0.031 2.92139,-0.61655 6.83024,-0.70941 8.31274,-0.19743 1.31392,0.45374 2.66437,2.31728 3.37519,4.65742 0.66124,2.17696 0.49311,3.23298 -0.74994,4.71025 -1.65835,1.97085 -4.07369,2.08983 -11.80056,0.5813 -2.37342,-0.46335 -4.75382,-0.8407 -5.28975,-0.83851 -2.01969,0.009 -4.53797,1.67918 -9.82872,6.52174 l -3.286101,3.00773 0.641232,0.6885 c 2.904419,3.11869 14.281909,9.98866 21.104269,12.74322 7.16527,2.89303 14.01654,6.74341 17.46798,9.81695 l 1.18104,1.05172 -1.12381,1.71994 c -1.56284,2.39183 -3.30978,3.26028 -6.50585,3.2342 -5.31669,-0.0433 -12.67372,-3.15014 -18.39719,-7.7689 -0.61251,-0.49426 -1.86535,-1.34278 -2.78411,-1.88561 -0.91874,-0.54279 -3.2365,-2.33002 -5.15056,-3.97163 -6.363332,-5.45754 -9.259792,-7.34605 -11.273351,-7.35026 -1.048395,-0.003 -1.278624,0.16529 -3.807169,2.77014 -2.426733,2.49993 -3.304173,3.71874 -2.93957,4.08335 0.07003,0.0699 0.67659,-0.33426 1.347846,-0.89841 1.909772,-1.60501 3.382363,-2.1509 5.326633,-1.9746 2.132188,0.19337 4.587467,1.40927 5.459358,2.70368 0.608545,0.9034 0.644605,1.16212 0.494677,3.54971 l -0.161663,2.57528 h 2.453689 c 4.92492,0 10.2014,2.10778 11.17787,4.46521 0.46404,1.12031 0.0136,2.15154 -1.58614,3.62547 -1.80514,1.66393 -4.17149,2.65305 -7.69868,3.21805 -3.132178,0.50171 -5.4753,1.55181 -5.4753,2.45379 0,0.51815 0.834477,0.64596 5.42899,0.83145 3.95188,0.15963 6.04961,0.59732 8.28735,1.72946 3.3664,1.70314 6.99792,5.22394 8.33965,8.08533 2.85394,6.08639 0.52837,10.75038 -4.68745,9.40075 -2.23425,-0.57813 -4.14523,-1.78658 -7.16164,-4.52882 -1.40287,-1.27536 -3.08768,-2.65349 -3.74404,-3.06251 -0.65637,-0.40904 -1.59514,-0.99869 -2.08614,-1.31031 -1.33899,-0.84984 -1.27027,-1.35922 0.39051,-2.89418 1.78104,-1.6461 1.66442,-1.93641 -1.14081,-2.83991 -3.381716,-1.08914 -3.459948,-0.89133 -3.25573,8.23094 0.284727,12.71743 -0.397784,15.85494 -3.820007,17.56028 -1.435346,0.71528 -2.877987,0.8565 -4.031602,0.39468 z m -3.110499,-18.85125 c 0.157811,-0.56868 0.287847,-3.19512 0.28871,-5.83652 l 0.0013,-4.80256 h -0.632594 c -1.701108,0 -4.308292,3.61768 -3.996884,5.54601 0.343785,2.12876 3.113636,6.70702 3.800795,6.28234 0.138127,-0.0855 0.380466,-0.62057 0.538423,-1.18927 z m -0.962591,-23.59502 c 1.195447,-0.5871 1.433557,-1.16686 1.134329,-2.76189 -0.423467,-2.25717 -1.934508,-2.59262 -5.698897,-1.26519 -2.534184,0.89363 -3.590947,1.47499 -3.834378,2.10934 -0.258106,0.67262 0.470902,2.01997 1.257943,2.32496 1.251197,0.48485 5.859647,0.22213 7.141003,-0.40722 z"
       id="path228289"
       inkscape:export-filename="path228289.png"
       inkscape:export-xdpi="96"
       inkscape:export-ydpi="96" /></g></svg>
