<?xml version="1.0" encoding="utf-8"?>
<!-- Generator: Adobe Illustrator 27.7.0, SVG Export Plug-In . SVG Version: 6.00 Build 0)  -->
<svg version="1.1" id="Layer_1" xmlns="http://www.w3.org/2000/svg" xmlns:xlink="http://www.w3.org/1999/xlink" x="0px" y="0px"
	 viewBox="0 0 1000 1000" style="enable-background:new 0 0 1000 1000;" xml:space="preserve">
<style type="text/css">
	.st0{clip-path:url(#SVGID_00000094594495802707979110000014438417158917884597_);}
	.st1{clip-path:url(#SVGID_00000108282354409617033010000011301729872647189180_);enable-background:new    ;}
	.st2{clip-path:url(#SVGID_00000094579091869080057400000011392050819706474637_);enable-background:new    ;}
	.st3{clip-path:url(#SVGID_00000013885591233928609900000010474805238948065698_);}
	.st4{clip-path:url(#SVGID_00000108282354409617033010000011301729872647189180_);fill:#231F20;}
	.st5{clip-path:url(#SVGID_00000108282354409617033010000011301729872647189180_);fill:#ED1C24;}
	.st6{clip-path:url(#SVGID_00000108282354409617033010000011301729872647189180_);fill:#FFFFFF;}
	
		.st7{clip-path:url(#SVGID_00000108282354409617033010000011301729872647189180_);fill:none;stroke:#231F20;stroke-width:10.7814;stroke-miterlimit:10;}
</style>
<g id="Main_Logo_00000183228926573394527210000003775512694071443075_">
	<g>
		<defs>
			<rect id="SVGID_1_" x="103" y="42.9" width="794" height="906.1"/>
		</defs>
		<clipPath id="SVGID_00000122687898248855393560000015804633331526767032_">
			<use xlink:href="#SVGID_1_"  style="overflow:visible;"/>
		</clipPath>
		<g style="clip-path:url(#SVGID_00000122687898248855393560000015804633331526767032_);">
			<defs>
				<rect id="SVGID_00000181053697896955575060000009479707672321779077_" x="103" y="42.9" width="794" height="906.1"/>
			</defs>
			<clipPath id="SVGID_00000118397573559504815350000005231854998141127302_">
				<use xlink:href="#SVGID_00000181053697896955575060000009479707672321779077_"  style="overflow:visible;"/>
			</clipPath>
			<g style="clip-path:url(#SVGID_00000118397573559504815350000005231854998141127302_);enable-background:new    ;">
				<g>
					<defs>
						<rect id="SVGID_00000134961533879997440880000000466359203435253904_" x="103" y="872.6" width="794" height="76.4"/>
					</defs>
					<clipPath id="SVGID_00000041979340865353971550000005756419318934652551_">
						<use xlink:href="#SVGID_00000134961533879997440880000000466359203435253904_"  style="overflow:visible;"/>
					</clipPath>
					<g style="clip-path:url(#SVGID_00000041979340865353971550000005756419318934652551_);enable-background:new    ;">
						<g>
							<defs>
								<rect id="SVGID_00000030452802941776701980000016655154886644498099_" x="103" y="872.6" width="794" height="76.4"/>
							</defs>
							<clipPath id="SVGID_00000090256733379868546410000001686823522586864039_">
								<use xlink:href="#SVGID_00000030452802941776701980000016655154886644498099_"  style="overflow:visible;"/>
							</clipPath>
							<path style="clip-path:url(#SVGID_00000090256733379868546410000001686823522586864039_);" d="M141.1,895
								c-0.7-3-2.1-5.4-2.8-6.3c-1.2-1.3-1.7-1.9-5.5-1.9h-4.1v30.2c0,5.4,0.6,5.8,6.4,6.2v2.4h-21.5v-2.4c5.5-0.4,6.1-0.8,6.1-6.2
								v-30.2h-4c-3.6,0-4.7,0.6-5.9,2.1c-0.9,1.2-1.8,3.5-2.7,6.1h-2.5c0.5-4.7,0.9-9.7,1-12.8h1.9c1,1.5,1.7,1.6,3.7,1.6h25.9
								c1.8,0,2.7-0.4,3.8-1.6h1.9c0.1,2.7,0.3,8.4,0.6,12.5L141.1,895z M268.2,914.7c-0.3,1.7-2.1,9.1-2.7,10.9h-33.6v-2.3
								c5.9-0.6,6.3-0.9,6.3-6.3v-24.5c0-5.5-0.8-5.8-5.2-6.2v-2.4H254c6.8,0,9.1-0.1,10-0.1c0.1,1.2,0.4,6.4,0.6,10.4l-2.5,0.3
								c-0.6-2.2-1.7-4.8-2.8-6c-1.2-1.3-2-1.7-5.3-1.7h-4.2c-2.5,0-2.7,0.1-2.7,2.3v13.4h6.4c3.6,0,4.3-1,5.2-5.5h2.5v14.3h-2.5
								c-1-4.8-1.6-5.5-5.3-5.5H247v11.1c0,4.4,0.1,5.8,4.1,5.8h4.6c3.6,0,4.6-0.4,6-2.2c1.6-1.9,2.9-4.2,4-6.4L268.2,914.7z
								 M380.9,925.7v-2.4c4.1-0.6,4.1-1.3,3.2-4c-0.6-1.9-1.7-4.8-2.7-7.4h-12.6c-0.7,2-1.6,4.4-2.3,6.4c-1.4,4,0.2,4.6,5.3,5v2.4
								h-16v-2.4c4.1-0.5,5.1-1.1,7.3-6.5l13.5-33.2l3.1-0.6c4.1,11.2,8.6,22.6,12.8,33.3c2.4,6,3,6.4,7.2,6.9v2.4H380.9z
								 M375.2,895c-1.9,4.6-3.7,8.9-5.3,13.6h10.3L375.2,895z M522.7,886.3c-4.3,0.4-5.6,1-8,7.1c-2,4.9-8.7,20.9-13.5,33h-3.6
								c-1.8-5-10.2-27-13-33.9c-2-4.8-2.9-5.8-7.1-6.2v-2.4h19.8l-0.1,2.4c-4.7,0.6-4.7,1.1-3.7,3.8c2,5.4,6.9,18.6,9.1,24.3
								c3.9-9.2,7.4-17.9,8.9-22.1c1.6-4.4,1.2-5.4-4.3-6v-2.4h15.4V886.3z M645.5,914.7c-0.3,1.7-2.1,9.1-2.7,10.9h-33.6v-2.3
								c5.9-0.6,6.3-0.9,6.3-6.3v-24.5c0-5.5-0.8-5.8-5.2-6.2v-2.4h21.1c6.8,0,9.1-0.1,10-0.1c0.1,1.2,0.4,6.4,0.6,10.4l-2.5,0.3
								c-0.6-2.2-1.7-4.8-2.8-6c-1.2-1.3-2-1.7-5.3-1.7h-4.2c-2.5,0-2.7,0.1-2.7,2.3v13.4h6.4c3.6,0,4.3-1,5.2-5.5h2.5v14.3H636
								c-1-4.8-1.6-5.5-5.3-5.5h-6.3v11.1c0,4.4,0.1,5.8,4.1,5.8h4.6c3.6,0,4.6-0.4,6-2.2c1.6-1.9,2.9-4.2,4-6.4L645.5,914.7z
								 M758.2,925.7v-2.4c4.1-0.6,4.1-1.3,3.2-4c-0.6-1.9-1.7-4.8-2.7-7.4h-12.6c-0.7,2-1.6,4.4-2.3,6.4c-1.4,4,0.2,4.6,5.3,5v2.4
								h-16v-2.4c4.1-0.5,5.1-1.1,7.3-6.5l13.5-33.2l3.1-0.6c4.1,11.2,8.6,22.6,12.8,33.3c2.4,6,3,6.4,7.2,6.9v2.4H758.2z
								 M752.5,895c-1.9,4.6-3.7,8.9-5.3,13.6h10.3L752.5,895z"/>
							<path style="clip-path:url(#SVGID_00000090256733379868546410000001686823522586864039_);" d="M889.1,894.5
								c-1.3-4.1-3.1-8.8-9.1-8.8c-3.8,0-6.2,2.6-6.2,6.2c0,3.5,2.4,5.7,8.1,8.5c6.9,3.4,11.3,6.7,11.3,13.1
								c0,7.6-6.4,13.1-15.6,13.1c-4.1,0-7.8-1.1-10.9-2c-0.4-1.5-1.5-8.2-1.9-11.2l2.5-0.6c1.3,4,4.9,11.1,11.3,11.1
								c4,0,6.4-2.4,6.4-6.6c0-3.7-2.3-5.9-7.8-8.8c-6.7-3.6-11.1-6.8-11.1-13.5c0-6.7,5.3-12.1,15-12.1c4.5,0,7.8,1,9.3,1.2
								c0.3,2.4,0.7,5.7,1.2,9.8L889.1,894.5z"/>
						</g>
					</g>
				</g>
			</g>
			<path style="clip-path:url(#SVGID_00000118397573559504815350000005231854998141127302_);fill:#231F20;" d="M174.3,807.7
				c-18-3.7-26.8-8.5-32.7-17.6c-6-9.3-6.7-11.8-6.4-20.2c0.3-8.6,0-7.7,10.1-20.8c2.9-3.7,6.1-8.4,7.1-10.4
				c3.1-6,8.8-14.2,13.2-18.9c4.1-4.3,4.1-4.4,1.1-2.7c-1.7,0.9-5.8,4.2-9.1,7.2c-3.3,3-8.2,7.1-10.9,9.1c-2.7,2-6.3,5.1-8,7
				c-1.7,1.8-5.2,4.4-7.6,5.6c-4.3,2.2-4.7,2.2-10.7,1.2c-9.3-1.7-10.6-3.2-13.1-15.1c-1.1-5.4-2.3-10.8-2.5-12
				c-1.3-6.2,16.3-13.1,21.5-8.4c1.6,1.4,2,1.4,6.4-0.7c4.9-2.3,16.5-11.5,27.3-21.6c7.7-7.3,14.8-12.8,30-23.2
				c5.5-3.8,8.5-6.5,9.3-8.4c0.6-1.5,0.9-3.1,0.5-3.5c-1.1-1.1-14.5-1.3-19.7-0.2c-3,0.6-5.7,1.8-6.8,3c-2.4,2.7-5.4,9.4-6.6,15
				c-0.8,3.7-1.7,5.2-5.2,8.2c-3.8,3.3-9.8,6-10.9,4.9c-0.2-0.2,0-4.3,0.6-8.9c1.6-13.4,2-12.8-4.6-8.7c-3.1,1.9-9.9,6.2-15.1,9.5
				c-7.5,4.8-9.9,5.9-11.7,5.5c-2.6-0.6-6.3-3.8-6.3-5.5c0-0.6-1.6-5.1-3.6-10c-2.1-5.2-3.5-10-3.4-11.6c0.2-2.6,0.5-2.7,4.8-2.9
				c7.9-0.4,14.5-2,23-5.6c4.6-2,8.9-4,9.6-4.6c3.3-2.7-0.3-11.5-10.4-25.8c-3.6-5.1-6.9-9.5-7.4-9.8c-0.5-0.3-0.9-1.6-0.9-2.8
				c0-2.2,0.2-2.3,3.8-1.7c2.1,0.3,5.9,1.1,8.3,1.9c2.5,0.7,7.2,2,10.4,2.8s7.4,1.8,9.4,2.3c4.8,1.2,7,2.5,11.7,6.9
				c3.4,3.2,4.2,4.5,4.6,8.1c1.4,10.7,1.1,10.2,4.8,10.1c4.3,0,29.7-5.8,31.2-7.1c0.7-0.5,2.3-4,3.7-7.8c2.1-5.7,2.4-7.9,2.1-13.5
				l-0.3-6.7l-5.2-5.2c-3.7-3.8-5.2-5.9-5.2-7.7c0-2.7,0.9-3,5.5-1.5c8.3,2.6,19.8,11.1,24.2,17.7c3.2,4.8,3.7,10.5,1.4,15.9
				c-2.5,6-2.1,6.6,4.7,7.3c8.9,0.9,12.5,2.2,17,6.1c4.3,3.8,6.2,8.1,5.7,13.3l-0.3,3.2l-14,2.3c-7.7,1.3-15.1,2.8-16.5,3.4
				c-1.4,0.6-4.3,1-6.5,1c-3.7,0-4.2,0.3-10,6.8c-5.7,6.3-16.6,15.8-18.3,15.8c-0.4,0-2.4,1.7-4.5,3.8l-3.8,3.8l8.8-0.3l8.8-0.3
				l5.6,5.3c5.4,5.1,5.6,5.4,5.6,9.9c0,5.9-2.2,8.7-8.3,10.8c-11.1,3.7-14,5.7-26.8,18.3c-11.9,11.8-18.7,20.3-25.1,31.6
				c-2.3,4-2.9,6.2-2.9,10.1c0,4.6,0.2,5.3,3.4,8.3c7.6,7.3,14.7,8.8,40.8,8.8c21.5,0,30.7-1.1,39.1-4.8c4.9-2.1,15.1-10,15.1-11.6
				c0-0.4,1.3-2.8,2.8-5.3c1.5-2.5,3.3-6.3,4-8.4s1.8-5.1,2.6-6.6c0.8-1.5,1.8-6,2.3-9.9c1.5-12.1,1.8-12.9,4.2-11.4
				c1.8,1.2,8.6,19.1,9.8,25.9c0.3,2,1.8,7.9,3.1,13.1c3.4,12.9,5.8,25.6,5.2,27.3c-0.9,2.4-4.9,4.4-13.5,6.7
				c-12.8,3.4-21.3,4.6-39.4,5.6C207.8,810,183.9,809.7,174.3,807.7L174.3,807.7z"/>
			<path style="clip-path:url(#SVGID_00000118397573559504815350000005231854998141127302_);fill:#231F20;" d="M382.9,808.4
				c-11-3.8-13.5-5.9-20.5-16.9c-4.5-7.2-6.4-12.1-8.3-22.3c-0.7-3.6-2.7-11.8-4.6-18.2c-1.8-6.4-3.6-14.9-4-18.8
				c-0.7-6.8-0.6-7.3,2.1-10.5c2.8-3.3,23.7-14,37.3-19.1c3.3-1.2,9.7-4.9,14.2-8.1c9.1-6.6,8.4-4,6.7-21.9
				c-1.1-11.5-6.2-31.5-9.3-36.6c-1.3-2.1-4.4-6-6.8-8.6c-5.5-5.9-5.4-8.3,0.3-8.7c4-0.3,5.8,0.1,18.3,4.1c7.2,2.3,7.9,2.1,15.9-5.2
				c6.4-5.8,22.4-14.1,34-17.8c4.7-1.5,11.6-3.8,15.3-5.3c6-2.3,7.8-2.6,16.2-2.1c16.1,0.8,21.9,5,26.9,19.3l2.5,7.3l-5.1,4.6
				c-5.1,4.6-14.7,17.2-18.3,23.8c-1.6,3-1.8,5-1.4,12.5l0.5,8.9l-2.9,1.1c-4.3,1.6-17.8,5-28.2,6.9c-6.6,1.2-12.1,3.2-19.7,7
				c-5.8,2.9-12.9,5.8-15.7,6.5c-8.7,2.1-17.9,6.2-26.3,11.7c-4.9,3.2-10.3,5.8-13.7,6.6c-11.4,2.7-31.4,14.2-31.4,18.1
				c0,2.4,3.1,5.2,5.7,5.2c1.1,0,7.4-3,14.1-6.6c35.5-19.2,52.8-20.5,62.7-4.4c4.7,7.6,5.6,10.2,5.6,16.4v6.4l-8.6,9
				c-4.7,5-8.9,10.1-9.2,11.4c-0.4,1.5,0.4,4.8,2.1,8.9c3.7,8.9,3.6,14.6-0.3,17.8c-2.9,2.4-6.4,3.3-22.2,5.9c-6.4,1-7.9,1.7-11,4.9
				c-2,2-4.3,4.7-5.1,6C389.1,809.9,387.6,810.1,382.9,808.4L382.9,808.4z M388,766.5c6.1-3.4,15.1-12.8,20-20.9
				c4.5-7.4,5-10.4,1.5-9.4c-1.2,0.4-3.9,1.1-6,1.6c-2,0.5-7.9,3-13.1,5.5c-6.7,3.3-10.6,4.6-13.8,4.6c-5.3,0-5.6,1.2-1.8,10.4
				c2,4.8,6,10.2,8.2,10.8C383.1,769.2,385.3,768,388,766.5z M443.7,651.4c8.7-4.1,9.8-5,15.7-12.4c12.5-15.8,13.6-18.9,5.8-16
				c-2.3,0.9-5.1,2-6,2.5c-3.2,1.7-22.8,8.1-27.3,8.9c-3.6,0.6-4.3,1.1-4,2.7c0.2,1.1,0.7,4.7,1.1,8c1,8.2,1.9,10.6,3.8,10.6
				C433.6,655.9,438.5,653.9,443.7,651.4L443.7,651.4z M477.7,795c-3.9-3.3-8.8-11-10.6-16.7c-4.1-12.8-4.9-16.4-6.3-25.7
				c-2-13-3.8-18.4-7.6-21.9c-3.5-3.2-4-7.7-1.4-11.6c2.2-3.4,7.9-3.3,14.6,0c6.5,3.3,7.9,3.2,13.8-1c8.9-6.3,18.1-11.5,26.2-14.9
				c7.3-3,9.2-3.3,21-3.7c16.4-0.5,19.5,0.5,28.5,9.5c7.4,7.4,8.5,10.6,6.6,18.6c-1.1,4.5-5.9,11.9-11.9,18c-0.7,0.7-2.1,2.8-3,4.6
				c-0.9,1.8-2.5,4.3-3.6,5.7c-3.8,5-7.9,11.7-7.9,13c0,0.7,1,2.8,2.2,4.5c1.6,2.2,2.4,5,2.6,9.4c0.3,5.4,0.1,6.6-1.8,8.5
				c-2.1,2.1-2.9,2.2-11.5,1.6c-5.1-0.3-15.9-0.9-23.9-1.2l-14.7-0.6l-3,3.1C482.6,798.2,481.6,798.3,477.7,795L477.7,795z
				 M508.4,755.5c4.3-2.8,10.6-10.9,15.3-19.5c1.6-3,3.7-6.8,4.7-8.6c5.1-9.2,0.3-8.9-20.6,1.4c-9.1,4.5-17.1,8.1-17.8,8.1
				c-2.9,0-4.7,4.9-4.1,11.7c0.7,9,1.4,9.6,10.8,9.6C503.3,758.1,505,757.7,508.4,755.5z"/>
			<path style="clip-path:url(#SVGID_00000118397573559504815350000005231854998141127302_);fill:#ED1C24;" d="M625.9,848.2
				c-0.8-0.1-1.9-0.8-1.9-1.1c0-0.4,1.7-1,2.8-1c0.5,0,1.2-0.1,1.7-0.4c1-0.5,1.3-0.5,1.6,0.1c0.1,0.2,0.3,0.5,0.4,0.6
				c0.4,0.2,1.5-0.2,2-0.8c0.6-0.7,1.1-0.8,2-0.3c0.6,0.3,1.3,0.3,2.2-0.2c0.3-0.1,0.7-0.3,0.9-0.3c0.4,0,1-0.8,1-1.4
				c0-0.3,0.1-0.6,0.2-0.7c0.1-0.1,0.2-0.6,0.3-1l0.1-0.8l2.5-0.1c1.4,0,2.9,0,3.4,0.2c0.5,0.1,1.4,0.3,2.1,0.5
				c0.6,0.1,1.4,0.5,1.7,0.7c0.6,0.5,0.9,0.5,2.1,0.2c0.7-0.2,1.3-0.2,3,0.1c2.2,0.3,2.6,0.3,3.8-0.2c0.4-0.2,1.5-0.4,2.4-0.5
				c0.9-0.1,2.3-0.4,2.9-0.6c0.7-0.2,2.1-0.4,3.1-0.5c1.2-0.1,2.1-0.2,2.3-0.4c0.2-0.2,0.8-0.4,1.2-0.4c0.4-0.1,1-0.3,1.2-0.4
				c0.4-0.2,0.9-0.3,5.1-1c1-0.2,2.6-0.5,3.4-0.8c0.9-0.3,1.7-0.5,1.8-0.5c0.1,0,0.4-0.2,0.5-0.4c0.2-0.3,0.5-0.4,2.3-0.5
				c1.1-0.1,2.5-0.3,3-0.4c0.6-0.2,2.3-0.3,4.5-0.4c3-0.1,3.7-0.1,4.2,0.2c0.3,0.2,1.4,0.5,2.3,0.6c1.5,0.3,1.7,0.4,2.4,1.1
				c0.5,0.5,1,0.9,1.6,1c1.5,0.4,1.5,0.4,1.2,0.7c-0.2,0.2-0.1,0.3,0.2,0.4c0.6,0.2,1-0.2,0.6-0.5c-0.6-0.4,0.1-0.5,2.6-0.6
				c2-0.1,2.7,0,3.3,0.2c1.2,0.5,2.5,0.4,3-0.2c0.5-0.5,0.5-0.5,2.8-0.4c1.3,0.1,3.2,0.3,4.2,0.5c3.9,0.8,4.7,0.8,7.5,0.6
				c2.5-0.2,2.7-0.2,4,0.2c0.8,0.2,1.6,0.4,1.9,0.4c0.7,0,0.9,0.2,0.6,0.5c-0.2,0.2-0.8,0.2-2.9,0.1c-2.2-0.1-2.8-0.1-3.5,0.2
				c-0.6,0.2-1.4,0.3-2.6,0.3c-1.6,0-1.9,0.1-2.6,0.5c-1.5,1-2.5,1.3-4.6,1.4c-2.9,0.1-3.4,0-4.3-1.1c-1.4-1.7-2.2-2.3-3.4-2.4
				c-0.9-0.1-1.3,0-2.4,0.6c-1.6,0.8-3.3,1-4.6,0.6c-0.8-0.2-1-0.2-1.4,0.1c-0.3,0.2-0.6,0.6-0.6,0.9c-0.2,0.8-0.9,1.4-2.1,1.5
				c-0.5,0.1-1.3,0.3-1.7,0.4c-0.6,0.2-1.8,0.3-4.5,0.3c-2.1,0-4.1,0.1-4.6,0.2c-0.5,0.1-1.9,0.4-3.1,0.7c-5,1.2-4.9,1.2-7.5,0.9
				c-1.3-0.1-2.6-0.4-2.8-0.5c-0.2-0.2-0.9-0.3-1.7-0.3c-0.7,0-2.6-0.2-4.1-0.4c-1.5-0.2-3.1-0.5-3.6-0.5c-0.5-0.1-1.1-0.3-1.4-0.5
				c-0.7-0.5-2.4-0.5-3.4,0c-0.5,0.3-1.1,0.4-1.9,0.4c-0.6,0-2,0.2-3,0.5c-1.1,0.3-2.1,0.5-2.4,0.5c-0.2,0-0.9,0.2-1.4,0.4
				c-1.1,0.4-4.6,0.9-6.4,0.9c-0.7,0-1.7-0.1-2.4-0.2c-1-0.2-1.2-0.2-1.8,0.1c-1.5,0.8-6.2,2-8.9,2.3
				C630.6,848.4,627.1,848.4,625.9,848.2z M641.2,843.1c0-0.1-0.1-0.2-0.2-0.2c-0.1,0-0.2,0.1-0.2,0.2c0,0.1,0.1,0.2,0.2,0.2
				C641.1,843.3,641.2,843.3,641.2,843.1 M617.2,846.8c-0.3-0.2-0.9-0.4-1.4-0.5c-0.5-0.1-1-0.2-1.1-0.2c-0.2-0.1,0.3-0.4,0.8-0.5
				c1,0,1.2-1.2,0.5-2.2l-0.4-0.6l0.5-0.3c0.4-0.2,1.6-0.3,2.4-0.2c0.3,0.1,0.6,1.1,0.6,2c0,0.6,0.1,1.2,0.3,1.4
				c0.3,0.5,0.3,0.5-0.2,1C618.4,847.3,617.8,847.3,617.2,846.8 M742.5,841.1c-1.1-0.6-2.1-1.1-2.1-1.2c0-0.1,0.9-0.6,1.9-1.1
				l1.9-0.9l4.3,0c5.4,0,11.2,0.3,13.6,0.7c1,0.2,3.9,0.3,6.4,0.4c2.5,0.1,5.6,0.2,7,0.3c2.4,0.2,4.9,0.2,7.7-0.2
				c2.2-0.3,8.6-0.2,9.2,0.1c0.8,0.5,0.5,0.9-1.1,1.3c-1.1,0.3-2.1,0.3-4.6,0.2c-1.8,0-3.6-0.2-4-0.3c-1.1-0.3-9.1-0.2-10,0
				c-0.4,0.1-2,0.2-3.7,0.2c-2.9,0-3,0-4.1,0.6l-1.2,0.6L754,842l-9.5,0.1L742.5,841.1z M892.7,830.9c-0.2-0.2-0.3-0.7-0.3-1.2
				c0-0.6-0.2-1.2-0.4-1.6c-0.3-0.6-0.5-0.7-1.2-0.7c-1.3,0-1.7-0.3-2.1-1.9c-0.4-1.3-0.4-1.6-0.1-3.4c0.2-1.5,0.2-2.2,0-2.6
				c-0.4-0.9-0.3-2.2,0.4-4.5c0.7-2.4,1-4.2,1.1-7.2c0.1-2.4,0.3-2.9,1.2-4.4c1.5-2.3,1.9-3.5,2.1-5.2c0.1-1.2,0.2-1.7,0.5-1.9
				c0.2-0.1,0.5-0.2,0.6-0.2c0.3,0.1,0.3,22.4,0,23.2c-0.1,0.3-0.2,1.8-0.2,3.4c0,1.6-0.1,3.2-0.1,3.6c0,0.4,0.1,1.4,0.2,2.2
				c0.2,1.4,0.2,1.5-0.2,2C893.6,831.1,893,831.3,892.7,830.9z M647.6,830.3c-0.8-0.2-0.9-0.3-1.2-1.1c-0.5-1.7-1-2.7-1.5-3
				c-0.3-0.2-1.9-0.2-5.5-0.2l-5,0l-0.9-0.8l-0.9-0.8l-1.9,0c-1.3,0-2.1-0.1-2.8-0.4c-0.8-0.3-0.9-0.5-1.1-1.2
				c-0.2-0.9-0.5-1.2-1.2-1.2c-0.6,0-2.7-0.9-3.2-1.4c-0.4-0.4-0.4-0.5-0.2-1.6c0.1-0.7,0.2-1.7,0.1-2.3c-0.1-0.8,0-1.5,0.2-2.4
				c0.3-1,0.3-1.3,0.1-1.6c-0.4-0.6-0.3-1.3,0.6-3.1c0.8-1.6,0.8-1.9,0.7-3.1c-0.1-0.7,0-1.9,0.1-2.6c0.1-1.1,0.2-1.4,0.9-1.9
				c0.4-0.4,0.9-0.7,1.2-0.9c0.2-0.1,0.6-0.5,0.8-0.8c0.2-0.3,0.5-1,0.8-1.4c1.4-2.2,1.7-3.9,1.9-9.1c0-0.3,0-1.4,0-2.3l0-1.7
				l-0.9-1c-1-1.1-1.1-1.5-0.6-2.9c0.3-0.8,0.3-1,0-1.8c-0.4-1.3-0.4-5.9,0-6.8c0.3-0.5,0.3-1.4,0.4-4.6c0-2.4,0.2-4.4,0.3-4.9
				c0.1-0.5,0.2-1.6,0.2-2.8c0-1.3,0-2.1,0.2-2.4c0.2-0.4,0.4-1.8,0.7-6.1c0.1-1.5,0.1-2-0.3-3c-0.2-0.7-0.4-1.6-0.4-2.2
				c0-0.5-0.1-1.5-0.3-2.2c-0.2-0.7-0.3-2-0.3-2.8c0-1.5,0-2.8,0-4.2c0-1.1,0.2-26,0.2-27.3c0-0.6,0-1.8-0.1-2.6
				c-0.2-1.5,0-1.8,0.5-1.2c0.3,0.4,0.7,0.4,1.3-0.1c0.6-0.5,1.4-1.9,1.2-2.2c-0.1-0.1-0.2-0.4-0.2-0.7c-0.2-1-1.6-2-2.3-1.7
				c-0.3,0.2-0.4,0-0.4-1.7c-0.1-1-0.2-2.4-0.4-3.1c-0.4-1.8-0.3-2.7,0.3-4.2c0.4-1.2,0.5-2,0.8-6.5c0.1-2.8,0.2-5.6,0.1-6.3
				c-0.1-0.7-0.1-1.7-0.1-2.3c0-0.6,0-2,0.1-3c0-1.5,0-2.1-0.3-2.9c-0.3-0.8-0.4-1.6-0.4-3.8c0-2.3-0.1-3-0.5-4
				c-0.4-1.1-0.4-1.6-0.4-4.6c0-2.7,0.1-3.4,0.3-3.6c0.4-0.3,0.4-1.4,0-2.3c-0.2-0.4-0.5-1.4-0.8-2.4c-0.5-1.6-0.5-2.1-0.6-6.5
				c-0.1-2.6-0.1-5.2-0.2-5.7c-0.1-0.6,0-1.2,0.1-1.5c0.2-0.5,0.2-0.7,0-1.3c-0.3-0.7-0.3-4.2,0-5.6c0.1-0.6,0-0.9-0.6-2.1l-0.7-1.3
				l0-4.3l0-4.3l0.6-1.1l0.6-1.1l-0.1-5.7c-0.1-4.8-0.2-6-0.5-7.2c-0.2-0.8-0.4-2.2-0.5-3.3c-0.1-1.8-0.1-1.9,0.5-3.1
				c0.3-0.7,0.8-1.5,1.1-1.9c0.4-0.4,0.5-0.7,0.4-1c-0.1-0.2-0.2-0.8-0.2-1.2c-0.1-0.7-0.1-0.9,0.7-1.6l0.8-0.8l0-1.9
				c0-4.7,0.2-5.5,1.1-6.4c0.4-0.4,0.8-1.1,0.9-1.5c0.2-0.5,0.4-0.9,0.8-1c0.7-0.3,1-1,1.1-2c0-0.6,0.2-1,1-1.9
				c0.5-0.6,1.1-1.1,1.2-1.1c0.1,0,0.6-0.2,1.2-0.5c0.5-0.3,1.2-0.5,1.6-0.5c0.4,0,0.8-0.2,1.2-0.6c0.6-0.6,1.1-1.9,0.9-2.3
				c-0.1-0.3,0.6-1,1-0.9c0.1,0,0.7,0,1.3-0.2c1.6-0.4,3.7-0.4,4.5,0.2c0.5,0.3,1.3,0.5,2.5,0.6c4.5,0.5,4.5,0.5,4.8,0.9
				c0.3,0.4,0.5,0.5,1.6,0.5c1,0,1.5,0.1,2.4,0.6c1,0.5,1.3,0.6,4,0.7c1.7,0.1,5.2,0,8.2-0.1c4.9-0.2,5.4-0.3,6.4-0.7
				c0.6-0.3,1.3-0.5,1.7-0.5c0.3,0,1-0.2,1.5-0.4c0.7-0.3,1.7-0.5,4-0.6c1.7-0.1,4.1-0.3,5.2-0.4c3-0.2,7.9-0.4,14.2-0.5l5.5-0.1
				l2.1-0.7c1.2-0.4,2.8-0.7,3.5-0.8c2-0.2,20.6-0.2,23.8,0c1.4,0.1,3.7,0.3,4.9,0.4c1.3,0.1,8.3,0.3,15.7,0.4
				c7.3,0.1,13.7,0.3,14.2,0.4c0.5,0.1,1.7,0.3,2.8,0.4c1.7,0.2,2,0.3,3,1c0.6,0.4,1.4,0.9,1.7,0.9c0.8,0.2,8.2-0.2,9.2-0.6
				c0.5-0.2,1.8-0.3,2.9-0.4c1.1-0.1,2.5-0.2,3.3-0.4c1.1-0.2,1.5-0.2,2.8,0.1c0.8,0.2,1.8,0.6,2.1,0.8c0.5,0.4,0.9,0.4,3.1,0.4
				c2.3,0,2.6-0.1,3.3-0.4c0.4-0.2,1.2-0.5,1.7-0.6c0.6-0.1,1.2-0.2,1.4-0.4c0.2-0.1,1.8-0.4,3.6-0.7c3-0.4,3.2-0.5,4.6-0.1
				c1.1,0.2,2.7,0.3,6.6,0.4c3.1,0,5.4,0.1,5.7,0.3c0.3,0.1,1,0.5,1.5,0.9c0.9,0.6,1,0.6,4.1,0.8c1.7,0.1,3.9,0.3,4.9,0.4
				c1.3,0.2,2.1,0.2,3.2,0c3.2-0.5,3.2-0.5,5,0.3c0.9,0.4,2,0.8,2.5,0.8c0.5,0.1,1.3,0.3,1.8,0.6c0.8,0.4,1.3,0.4,4.7,0.4
				c3.5,0,3.8,0,4.3,0.4c0.3,0.2,1.1,0.5,1.7,0.6c0.6,0.1,1.2,0.2,1.2,0.2c0.2,0.2,2.4,3.6,2.8,4.3c0.5,0.8,0.5,0.9,0.3,1.7
				c-0.1,0.5-0.3,1.3-0.4,1.9c-0.1,0.6-0.4,1-0.6,1.2c-0.5,0.2-0.5,1.6-0.1,2c0.2,0.1,0.4,0.4,0.4,0.7c0.1,0.2,0.4,0.8,0.7,1.2
				c1.2,1.5,1.4,2.5,1.2,6.5l-0.1,3.5l0.6,1.2c0.7,1.3,0.7,1.8,0.4,6.2c-0.1,2.1-0.2,2.4-0.7,2.9c-0.3,0.3-0.8,1.1-1.2,1.6
				c-0.4,0.6-1,1.3-1.4,1.7c-0.4,0.4-1.1,1.1-1.5,1.7c-0.4,0.5-1,1.1-1.3,1.2c-1.1,0.5-1.1,2.4,0,3.4c0.5,0.5,0.9,1.6,0.9,2.5
				c0,0.7,0.3,1.1,1.1,1.6c0.2,0.1,0.4,0.5,0.5,1.2c0.1,0.7,0.2,1,0.5,1.2c0.5,0.3,0.5,0.9-0.1,1.5c-0.3,0.3-0.8,1.2-1.3,2.1
				c-0.4,0.9-1.2,2-1.7,2.5c-0.8,0.8-1.1,1.3-1.4,2.3c-0.4,1.2-0.4,2.1-0.6,11c-0.1,6.8-0.2,10.1-0.4,10.9c-0.3,1.1-0.3,1.2,0.5,2.7
				c0.4,0.9,0.8,1.8,0.9,2.1c0.2,0.9,0.8,1.2,2.5,1.4c0.9,0.1,2.1,0.2,2.8,0.2c2,0,2.1,0.1,2,2.3c0,1.4,0.1,2.1,0.3,2.9
				c0.3,0.8,0.4,1.6,0.4,3.8c0,2,0.1,2.8,0.3,3.1c0.2,0.2,0.3,1,0.4,1.7c0.1,1.1,0.2,1.5,0.6,1.9c0.4,0.4,0.4,0.7,0.4,1.7
				c-0.1,3.7,0,5.7,0.4,6.4c0.5,0.9,0.5,1.4,0.1,2.7c-0.3,0.9-0.3,1,0.1,1.7c0.4,0.6,0.4,0.9,0.3,1.9c-0.1,1.2-0.1,1.3,0.5,2.1
				c0.3,0.5,0.6,1.1,0.6,1.3s0.1,0.8,0.3,1.3c0.4,1.2,0.4,2-0.1,2.9c-0.5,1-0.5,2.1-0.1,2.7c0.7,1,0.7,3,0,3.6
				c-0.6,0.5-1.2,2-1.2,3.3c0,0.7-0.1,1.5-0.2,1.8c-1.9,3.4-2,3.6-2.3,5.2c-0.2,0.9-0.4,1.9-0.5,2.2c-0.3,0.8-0.1,3,0.5,4.4
				c0.7,1.6,0.7,3.8,0.1,4.9c-0.4,0.7-0.4,1-0.3,1.8c0.2,1.2,0.2,1.5,0,2.9c-0.1,0.9-0.1,1.2,0.3,1.7c0.2,0.4,0.4,0.8,0.4,1
				c0,0.2,0.2,0.7,0.5,1.2c0.3,0.5,0.5,1.1,0.5,1.2c0,0.1,0.2,0.7,0.5,1.4c0.5,1,0.5,1.3,0.5,3.1c-0.1,1.9-0.1,2.1-0.7,3
				c-0.8,1.2-1,2.1-0.6,3.2c0.2,0.5,0.4,1.6,0.5,2.5c0.2,1.4,0.3,1.8,0.9,2.4l0.7,0.7v5.1c0,4.2,0.1,5.2,0.3,5.6
				c0.2,0.3,0.4,1.2,0.4,2.1c0.2,2.1,0.4,2.9,1,3.2c0.9,0.4,0.9,1,0.7,5.1c-0.1,2.1-0.3,4.3-0.3,4.9c-0.1,0.8,0,1.2,0.2,1.5
				c0.3,0.4,0.3,1,0.3,3v2.5l-0.8,1.4c-0.5,0.8-1,1.6-1.3,1.9c-1.3,1.5-1.5,1.8-1.5,2.6c0,1.3,0.2,1.7,0.8,2
				c1.1,0.4,1.1,1.2,0.3,2.6c-0.3,0.5-0.4,1-0.4,1.8c0,0.7-0.1,1.4-0.3,1.7c-0.5,0.9-0.5,2.4,0,3c0.3,0.4,0.4,0.7,0.4,2.4
				c0,1.6-0.1,2.1-0.4,2.8c-0.2,0.4-0.4,1.1-0.4,1.5c0,0.6-0.9,2.6-1.4,3.2c-0.1,0.1-0.2,0.7-0.2,1.2c0,1.8-0.6,2.7-1.8,2.7
				c-0.7,0-1.4,0.5-1.7,1.2c-0.2,0.5-0.5,0.8-1.1,1.1c-0.5,0.2-1,0.4-1.1,0.4c-0.1,0-0.7,0.2-1.3,0.5c-0.6,0.3-1.3,0.5-1.5,0.6
				c-0.3,0.1-1.1,0.6-1.7,1.3c-2.1,2-2.2,2.1-6.8,2.1c-3.2,0.1-4.1,0.1-4.6,0.4c-0.8,0.4-1.5,0.4-1.8,0.1c-0.1-0.1-0.2-0.8-0.2-1.4
				c0-1.3-0.3-2.1-0.9-2.5c-0.5-0.3-3.8-0.4-13-0.2c-3.8,0.1-4,0-5.1-0.4c-0.6-0.3-1.3-0.5-1.5-0.5c-0.2,0-0.5-0.1-0.8-0.3
				c-0.5-0.4-2.4-0.4-4.2,0c-1.2,0.3-1.6,0.3-2.6,0.1c-0.6-0.1-1.7-0.2-2.3-0.2c-1.5,0-3.8-0.5-4.4-0.9c-0.4-0.3-1-0.3-2.8-0.3
				c-2.2,0-2.4,0-2.8-0.5c-0.2-0.2-0.7-0.8-1.1-1.2c-0.4-0.4-0.7-0.9-0.7-1c0-0.1-0.5-0.7-1.2-1.4c-1.3-1.2-1.4-1.6-0.9-2.7
				c0.2-0.6,0.4-0.7,0.9-0.7c2,0,2.2-1.2,0.4-2.9c-1.4-1.3-4.4-1.9-9.4-2l-3.1,0l-1.6,0.9c-0.9,0.5-2,1.1-2.6,1.4
				c-0.6,0.3-1.2,0.6-1.4,0.7c-0.2,0.1-0.9,0.5-1.5,0.8c-0.6,0.3-1.5,0.8-1.9,1.2c-0.5,0.3-1.4,0.8-2.2,1c-0.7,0.2-1.6,0.7-2,1.1
				c-0.5,0.5-0.8,0.6-1.4,0.6c-1.1,0-1.6,0.1-1.7,0.5c-0.2,0.4,0.2,1,0.7,1.2c0.3,0.1,0.4,0.3,0.4,0.5c-0.1,0.3-0.6,0.6-2.7,1.3
				c-1.4,0.5-3.2,1-3.8,1.1c-0.7,0.1-4.3,0.2-8.2,0.2c-6.5,0-7,0-7.5,0.4c-0.3,0.2-0.6,0.7-0.7,1c-0.2,0.7-1.1,1.2-1.9,1.2
				c-0.2,0-0.8,0.3-1.4,0.8c-1.1,0.9-2.6,1.5-4,1.9c-0.5,0.1-1.3,0.3-1.6,0.5c-0.3,0.2-1.4,0.3-2.3,0.4c-1.5,0.1-1.9,0.1-2.7-0.3
				c-0.5-0.2-1.1-0.4-1.3-0.4s-0.6-0.1-0.8-0.3c-0.3-0.2-0.3-0.3-0.1-0.5c0.1-0.1,0.3-0.5,0.3-0.7c0-0.2,0.2-0.7,0.5-1
				c0.7-0.7,0.5-1.1-1.1-1.6c-1.1-0.4-1.2-0.4-2.1-0.1c-1.2,0.4-1.6,0.4-2.2,0c-0.6-0.4-0.6-0.7,0-1.3c0.6-0.7,0.8-1.3,0.8-2.9
				c0-1.1,0.1-1.7,0.5-2.4c0.6-1.3,0.4-1.6-1.4-1.7c-0.9-0.1-1.7-0.3-2.2-0.5c-1.2-0.6-1.9-0.7-4.8-0.5c-3.4,0.3-4.6,0.5-5.7,1.1
				c-0.6,0.3-1.4,0.6-2.2,0.6c-1.4,0.1-2.1,0.5-3.6,2c-0.5,0.5-0.8,0.7-1.4,0.7c-0.6,0-1,0.2-1.7,0.8c-0.5,0.4-1,0.9-1.2,0.9
				c-0.2,0.1-0.6,0.5-0.8,0.9c-0.2,0.4-0.6,0.8-0.8,0.9c-0.2,0.1-0.6,0.5-0.9,0.9c-0.4,0.6-1,1.1-2.3,1.7c-1,0.5-2.1,1.2-2.5,1.4
				c-0.7,0.4-0.9,0.5-4,0.5c-4.2,0-4.6,0.1-5.7,1.3c-0.8,0.9-0.9,0.9-2.2,1.1c-0.7,0.1-2.1,0.1-2.9,0c-2.2-0.2-2.3-0.2-2.6,0.1
				c-0.1,0.1-0.2,0.6-0.2,1.1v0.8l-2.4,0c-2.1,0-2.6,0.1-3.7,0.6l-1.3,0.5l-13.5-0.1l-13.5-0.1l-0.4,0.5c-0.8,1-2.1,2.3-2.3,2.2
				C648.6,830.6,648.1,830.5,647.6,830.3z M775.1,813.8c0.1-0.1,0.3-0.5,0.3-0.9c0-1.3-1.2-2-2.5-1.5c-0.3,0.1-0.6,0-1-0.2
				c-1.2-0.7-1.5-0.7-1.7-0.1c-0.4,1,0.5,2.7,1.5,3C772.2,814.2,774.8,814,775.1,813.8z M770.3,809.6c0-0.2-0.1-0.4-0.2-0.4
				c-0.1,0-0.2,0.2-0.2,0.4c0,0.2,0.1,0.4,0.2,0.4C770.2,810,770.3,809.8,770.3,809.6 M641.8,581.1c0.8-0.5,1.4-1,1.4-1.2
				c0-0.5-0.8-1.1-1.4-1.1s-1,0.4-1.3,1.4c-0.1,0.3-0.3,0.7-0.4,0.9c-0.3,0.4-0.2,1,0.1,1C640.3,582.1,641,581.6,641.8,581.1z
				 M611.5,821.5c-0.2-0.1-0.2-0.4-0.1-0.9c0.3-1.4,0.4-5.9,0.1-6.7c-0.1-0.5-0.4-1.7-0.5-2.8c-0.3-1.9-0.3-1.9,0.2-3
				c0.5-1.1,0.5-1.1,0.2-2c-0.3-0.8-0.3-0.9,0-1.3c0.4-0.6,0.4-2.5,0-3.4c-0.3-0.7-0.3-0.8,0.3-1.8c0.6-1,0.6-1,0.4-2.1
				c-0.1-0.6-0.2-1.7-0.2-2.5c0-0.8,0-1.7,0-2.1c0-0.4,0-1.5,0-2.5c0.1-5.1-0.1-9.2-0.4-10.1c-0.2-0.4-0.2-0.7,0-1
				c0.1-0.2,0.2-1.5,0.2-3.1c0-2.6,0-2.7-0.6-3.5c-0.3-0.4-0.7-0.8-0.8-0.8c-0.5,0-0.7,0.4-0.5,1.2c0.2,0.9,0.2,2.5,0.1,2.9
				c-0.1,0.2-0.3,0.3-0.4,0.3c-0.2,0-0.3-0.4-0.2-2.3c0-1.3,0-3-0.1-3.8c-0.1-1.3-0.2-1.7-0.8-2.2c-0.5-0.5-0.6-0.7-0.5-1.3
				c0.2-0.9,0.7-1.6,1.1-1.6c0.3,0,0.6,0.4,0.9,1.1l0.6,1.1l-0.5,0.5c-0.4,0.4-0.4,0.6-0.3,1.5c0.2,1.3,0.5,1.8,1,1.5
				c0.8-0.7,1-1.8,1-7.2c0.1-7.7,0.1-8.2-0.2-8.7c-0.1-0.2-0.2-0.5-0.2-0.7c0-0.2,0-0.6-0.1-1c-0.1-0.4-0.3-1.3-0.4-2.1
				c-0.2-1.3-0.2-1.4,0.3-2.2c0.4-0.6,0.5-0.9,0.4-1.4c-0.1-0.3-0.2-0.9-0.2-1.2c-0.1-0.3,0-0.9,0.1-1.2c0.2-0.5,0.2-1.3-0.3-3.8
				c-0.1-0.5,0-0.7,0.8-1.6c0.9-1,1.5-1.2,1.9-0.7c0.1,0.1,0.3,1.5,0.4,2.9c0.1,2.5,0.2,2.7,0.6,3.1c0.6,0.5,0.6,1.1,0,1.5
				c-0.6,0.4-0.7,1-0.2,1.5c0.3,0.3,0.3,0.4,0,1.2c-0.2,0.5-0.3,1.7-0.3,2.8c0,1.1,0,2.2,0,2.4c0,0.2,0,2.2-0.1,4.4
				c0,2.2-0.1,4.2-0.2,4.5c-0.1,0.3,0,1,0.1,1.7c0.2,1,0.2,1.3-0.1,2c-0.3,0.6-0.3,0.9-0.2,1.5c0.5,1.8,0.6,2.4,0.3,3.2
				c-0.2,0.5-0.3,1-0.2,1.5c0.1,0.4,0.2,2.6,0.2,4.9c0.1,3.9,0.1,4.1,0.6,4.4c1.4,1,1.5,1.3,0.4,1.4c-0.7,0.1-0.8,0.1-0.9,0.8
				c-0.1,0.4-0.1,1.4,0,2.3c0.2,2.1,0.2,1.9,0,9.6c-0.2,7.4-0.1,7.7,0.9,8.1c0.8,0.3,0.7,0.7-0.1,1l-0.7,0.2l0,1.8
				c0,3.7-0.3,11.7-0.4,12.2C613.7,821.2,612.3,822,611.5,821.5z M890.9,787.3c-0.1-0.3-0.1-0.8-0.1-1.1c0.1-0.7-0.3-1-1.6-1
				c-0.8,0-1-0.1-1.2-0.6c-0.1-0.3-0.2-1.2-0.2-2c0-1.5,0-1.5,1.6-4.4c0.3-0.6,0.4-1.2,0.4-2.5c0-1.5,0.1-1.7,0.8-2.9
				c0.7-1.2,0.8-1.4,1-3.7c0.1-1.4,0.4-3.2,0.6-4.2c0.4-1.7,0.4-1.8,0.1-2.9c-0.2-0.7-0.3-2-0.3-3.3c0-2.8-0.6-6.5-1.6-9.9
				c-0.5-1.5-0.5-2.1-0.1-4.3c0.4-2.2,0.5-12.1,0.1-13.7c-0.1-0.6-0.4-1.5-0.7-2c-0.3-0.5-0.5-1.4-0.6-2c-0.1-0.6-0.3-1.4-0.5-1.9
				c-0.7-1.8-0.9-4.5-0.5-9.3c0.2-2.4,0.4-4.6,0.5-4.9c0.3-0.7,0.3-1.7,0-3.1c-0.1-0.6-0.3-1.9-0.4-2.9c-0.2-1.8-1-4.5-1.4-4.7
				c-0.1-0.1-0.4-0.5-0.5-0.9c-0.2-0.4-0.6-1.2-0.9-1.7c-1-1.4-1.1-1.9-1.6-4c-0.2-1.1-0.5-2.1-0.6-2.2c-0.1-0.1-0.3-0.9-0.3-1.6
				c-0.1-0.8-0.3-1.9-0.4-2.5c-0.7-2.6-0.7-11.1-0.1-12.3c0.1-0.2,0.3-1,0.4-1.7c0.1-0.7,0.4-1.6,0.6-2c0.2-0.4,0.4-1.1,0.4-1.5
				c0-0.4,0.2-1.5,0.4-2.5c0.2-1,0.4-2.3,0.4-2.8c0-0.6,0.1-1.6,0.3-2.3c0.2-0.7,0.4-2.5,0.6-3.8c0.3-2.8,0.9-5.3,1.5-7.1
				c0.2-0.6,0.4-1.5,0.4-2s0.2-1.4,0.4-2.1c0.2-0.7,0.4-1.5,0.4-1.7c0-1.3,1.1-1.7,1.8-0.7c0.3,0.4,0.4,0.8,0.4,1.6
				c0,0.7,0.2,1.5,0.7,2.8c0.6,1.4,0.8,2.2,1,4.4c0.2,1.5,0.4,2.9,0.5,3.1c0.2,0.3,0.2,3.4,0.3,11.4c0,8.9,0.1,11.1,0.3,11.8
				c0.5,1.6,1,4.9,1,6.7c-0.1,4.3-0.1,4.6,0.2,5.5c0.2,0.5,0.3,1.5,0.3,2.2c0,0.7,0.1,1.6,0.3,2c0.4,0.9,0.4,3,0,3.5
				c-0.2,0.3-0.3,0.9-0.3,2.1c0,2-0.3,3.1-0.9,4c-0.7,0.9-0.7,1.5-0.4,3.6c0.5,2.6,0.4,4.6-0.1,5.5c-0.4,0.6-0.4,0.9-0.3,1.9
				c0.1,0.6,0.3,1.6,0.4,2.1c0.2,0.7,0.3,2.4,0.4,6.4c0.1,4.7,0,5.6-0.2,6.7c-0.2,0.7-0.3,1.8-0.4,2.5c0,0.7-0.1,1.5-0.3,1.8
				c-0.4,0.7-0.3,8.8,0.1,10.2c0.2,0.6,0.3,1.2,0.2,1.6c-0.2,0.7-0.3,4.4-0.3,6.5c0,0.8,0.2,2.1,0.4,3c0.2,1,0.4,2.8,0.5,4.6
				c0.1,2.2,0.2,3.1,0.4,3.3c0.4,0.4,0.5,4.1,0.5,12.9c0,4.8-0.1,7-0.2,7.2c-0.1,0.1-0.5,0.3-0.8,0.4c-0.6,0.1-1.4,0.9-1.4,1.4
				c0,0.3-0.7,0.9-1,0.9C891.2,787.8,891,787.5,890.9,787.3z M612,723.8c0-0.1-0.1-0.5-0.2-1c-0.1-0.4-0.3-1-0.5-1.3
				c-0.5-0.6-0.5-0.9-0.1-1.7c0.3-0.6,0.3-0.7-0.1-2c-0.2-0.8-0.4-1.8-0.4-2.4s-0.1-1.4-0.2-1.9c-0.3-1.1-0.3-1.9,0-3
				c0.2-0.8,0.2-1-0.4-2.1c-0.5-1.1-0.8-2-0.5-2c0.1,0,0.3,0.1,0.5,0.3c0.4,0.2,0.5,0.2,0.9-0.4c0.6-0.7,0.6-1.4,0.2-2.4
				c-0.3-0.8-0.4-3.8-0.1-5c0.2-1.1-0.1-6.6-0.5-7.4c-0.4-0.9-0.4-1.5,0-1.9c0.3-0.3,0.3-0.9,0.3-4.5c0-3.8,0-4.2,0.4-4.7
				c0.5-0.6,0.5-1.4,0-2.1c-0.2-0.3-0.3-0.8-0.3-1.6c0.1-2.7,0-4.6-0.5-5.8c-0.3-0.6-0.3-0.8-0.1-1.1c0.7-0.9,0.3-10.4-0.6-12.3
				c-0.5-1.1-0.8-1.1-1.2-0.2c-0.2,0.4-0.4,0.6-0.6,0.6c-0.4-0.1-0.9-1.8-0.6-2.2c0.1-0.2,0.1-0.6,0.1-0.9c-0.1-0.5,0-0.6,0.3-0.8
				c0.9-0.5,1.7,0.5,1,1.2c-0.2,0.2-0.1,0.2,0.2,0.2c0.4,0,0.4-0.1,0.4-1.2v-1.2l-1-0.5c-0.9-0.4-1-0.5-1-1.3c0-0.4-0.3-1.2-0.6-1.8
				c-0.3-0.6-0.6-1.3-0.6-1.6c-0.1-0.5,0-0.7,0.4-1c0.4-0.3,0.6-0.3,1.1-0.1c0.3,0.1,0.8,0.2,1.1,0.1c0.6-0.1,1.2-1.4,1-2
				c-0.1-0.4-0.2-1.7-0.3-5.2c0-0.9-0.2-1.7-0.3-1.9c-0.2-0.2-0.2-0.6-0.1-1c0.1-0.6,0.3-5.5,0.4-7.6c0-1.2-0.4-3.5-0.6-4
				c-0.2-0.4-0.2-0.6,0.1-1.2c0.4-0.9,0.3-2.3-0.2-2.9c-0.4-0.5-0.4-1,0-1.7c0.2-0.5,0.2-0.7,0-1.9c-0.2-0.7-0.5-1.6-0.7-1.8
				c-0.3-0.4-0.4-0.4-0.8-0.2c-0.6,0.4-0.8,0.1-0.8-1.1c0-1,0.3-1.3,0.8-0.6c0.4,0.5,0.4,0.5,0.7,0.1c0.4-0.5,0.4-1.3,0-1.7
				c-0.3-0.3-0.3-0.4,0.1-1c0.6-1.2,0.5-7-0.3-10.3c-0.2-0.8-0.6-3.5-0.6-4.2c0-0.2,0-0.7,0.1-1.1c0.1-0.5,0-1.4-0.2-2.3
				c-0.2-0.8-0.3-1.9-0.3-2.5c0-1.1-0.3-1.9-0.8-2.5c-0.3-0.3-0.4-0.6-0.3-1.1c0.1-0.4,0.2-2,0.2-3.6c0.1-3.2,0.6-5.4,1.3-6.4
				c0.2-0.3,0.4-0.7,0.4-0.7c0-0.3,0.7-1.6,0.9-1.8c0.1-0.1,0.6-0.1,1.1-0.1c1.1,0,1.5-0.4,1.5-1.5c0-1.8,0.4-2.1,1.5-1.4
				c0.4,0.3,0.6,0.3,0.9,0.1c0.3-0.2,0.4-0.2,0.6,0.3c0.1,0.3,0.4,0.8,0.6,1.1c0.4,0.6,0.4,0.8,0.4,5.9c-0.1,5.2-0.1,5.3,0.4,6.2
				c0.6,1.1,0.9,3.3,0.9,5c-0.1,1.6,0,3.3,0.1,5.2c0.1,1.2,0,1.8-0.2,2.4c-0.3,0.6-0.3,1.7-0.3,5.2c0,3.3-0.1,4.7-0.3,5.5
				c-0.2,0.6-0.4,2.7-0.5,4.9c-0.3,5.5-0.7,8.6-1.2,9.8c-0.4,0.8-0.5,1.4-0.5,3c0,1.5-0.1,2.2-0.4,2.8c-0.4,0.7-0.4,0.8-0.1,1.3
				c0.2,0.3,0.4,0.9,0.5,1.3c0.1,0.4,0.3,1.1,0.5,1.5c0.2,0.4,0.4,1.1,0.4,1.6c0,0.5,0.2,1.3,0.6,2.1c1,2.2,1.2,3.8,1.2,10
				c-0.1,8.4-0.1,9.2-0.5,10.8c-0.2,0.8-0.3,2.1-0.3,2.8c0,1.1-0.1,1.4-0.4,1.8c-0.4,0.4-0.4,0.7-0.5,2.9c0,1.4-0.1,3.1,0,3.9
				c0,0.8,0,2.6,0,3.9c0,1.4,0,3.5,0,4.7c0,2-0.1,2.3-0.5,3.1l-0.5,0.9l0.1,9.8c0.1,9.1,0.1,9.8,0.4,10.4c0.2,0.4,0.4,1.2,0.5,2
				c0,0.7,0.2,1.8,0.3,2.4c0.2,0.9,0.2,1.2-0.1,2.1c-0.3,1-0.3,1.1-0.1,1.7c0.5,1.1,0.6,1.8,0.2,2.6c-0.2,0.4-0.3,1-0.3,1.3
				s0.1,1.9,0.1,3.5c0,1.8,0.1,3.1,0.3,3.2c0.1,0.2,0.2,0.7,0.1,1.3c-0.1,0.9-0.2,1.1-0.9,1.6C613,723.9,612.2,724.1,612,723.8
				L612,723.8z M609.6,649.8c-0.2-0.3-0.5-0.3-0.9,0c-0.3,0.2-0.2,0.2,0.1,0.5c0.3,0.3,0.4,0.3,0.7,0
				C609.6,650.1,609.6,649.9,609.6,649.8L609.6,649.8z M608.5,699.9c-0.1-0.1,0.1-0.2,0.4-0.2c0.3,0,0.5,0.1,0.5,0.2
				s-0.2,0.2-0.4,0.2C608.8,700.1,608.6,700,608.5,699.9 M608.6,679.9c-0.2-0.2-0.1-0.5,0.2-0.5c0.2,0,0.3,0.1,0.3,0.2
				C609,679.9,608.7,680.1,608.6,679.9z M615.3,665.4c0-0.3,0.1-0.5,0.3-0.5c0.2,0,0.3,0.2,0.3,0.5c0,0.3-0.1,0.5-0.3,0.5
				C615.4,665.9,615.3,665.7,615.3,665.4 M606.9,643.6c-0.3-0.8-0.3-1.2-0.1-1.4c0.3-0.3,0.9,0.1,1.1,0.7c0.2,0.5-0.2,1.8-0.5,1.8
				C607.4,644.7,607.1,644.2,606.9,643.6z M888.7,640.8c-0.5-0.8-0.5-1-0.4-6.9c0-3.9,0.1-6.3,0.3-6.9c0.1-0.5,0.3-1.5,0.4-2.3
				c0.1-0.9,0.2-1.5,0.4-1.6c0.1,0,0.4,0.3,0.6,0.8c0.3,0.8,0.4,1.8,0.4,8.9c0,7.6,0,8-0.4,8.4C889.3,641.8,889.2,641.8,888.7,640.8
				 M607.4,640.5c-0.2-0.2-0.2-0.9,0-0.9c0.3,0,0.5,0.6,0.3,0.8C607.6,640.6,607.4,640.6,607.4,640.5z M606.7,630.8
				c-0.2-0.2-0.3-0.5-0.2-1.2c0.2-1.6,0.7-1.5,1,0.1c0.1,0.7,0.1,1-0.2,1.2C607.1,631.1,607,631.1,606.7,630.8z M888.9,619.3
				c-0.1-0.3-0.4-0.6-0.7-0.7c-1.2-0.3-1.2-0.3-1.2-3.8c0-1.8,0.1-3.8,0.1-4.5c0-0.7,0.1-1.5,0.1-1.7c0-0.3,0.1-0.3,0.5-0.2
				c0.2,0.1,0.7,0.2,0.9,0.2c0.5,0.1,1.3,0.8,1.9,1.8c0.4,0.6,0.8,2.3,0.8,3.5c0,0.4,0.1,0.9,0.2,1.1c0.3,0.4,0.6,2.3,0.6,2.7
				c0,0.2-0.5,0.5-1,0.7c-0.6,0.3-0.9,0.5-0.9,0.8c0,0.4-0.4,0.6-0.9,0.6C889.3,619.8,889,619.6,888.9,619.3z M889.1,611.6
				c0-0.1-0.1-0.2-0.2-0.2c-0.1,0-0.2,0.1-0.1,0.2s0.2,0.2,0.2,0.2C889.1,611.8,889.1,611.7,889.1,611.6 M606,612.1
				c-0.1-0.1-0.2-0.6-0.2-1c0-0.6,0.1-0.8,0.4-0.8c0.4,0,1.3,1.3,1.1,1.6C607.2,612.2,606.3,612.3,606,612.1z M605.5,601.7
				c-0.1-0.2,0-0.6,0.3-0.6c0.1,0,0.2,0.2,0.2,0.4C606,601.9,605.7,602,605.5,601.7z M605.5,599.1c-0.1-0.1-0.1-0.4-0.1-0.6
				c0-0.7,0.7-0.5,0.8,0.2C606.2,599.2,605.9,599.4,605.5,599.1z M888,598c-0.4-0.5-0.7-1.1-1.2-3c-0.5-2.2-0.6-2.7-0.6-6
				c0-3.1,0-3.6,0.3-3.8c0.2-0.1,0.7-0.8,1.2-1.4c0.5-0.7,1-1.2,1.2-1.2c0.4,0,1.8,1.8,2.7,3.6l0.6,1.1l-0.2,3.1
				c-0.1,1.7-0.3,3.3-0.4,3.6c-0.1,0.3-0.3,0.9-0.3,1.4c-0.1,0.6-0.4,1.3-0.9,2.1C889.4,598.8,888.9,598.9,888,598 M889.3,591.4
				c0-0.3-0.1-0.5-0.3-0.5c-0.3,0-0.4,0.6-0.2,0.9C889.1,592.1,889.3,591.9,889.3,591.4z M605.6,597.2c0-0.1,0.1-0.3,0.3-0.5
				c0.3-0.4,0.7-0.1,0.5,0.4C606.2,597.4,605.6,597.5,605.6,597.2z M604.9,594.6c-0.2-0.4,0.1-0.6,0.7-0.6c0.5,0,0.6,0.1,0.5,0.4
				C606.1,594.7,605.1,594.9,604.9,594.6 M638.1,563.3c-0.6-0.1-1.5-0.3-2.1-0.3s-1.2-0.1-1.5-0.3c-0.3-0.2-1.1-0.5-1.8-0.7
				c-1.2-0.4-1.3-0.4-2.8-0.1c-1.5,0.3-1.5,0.3-2.9-0.1c-0.8-0.2-1.7-0.4-2.2-0.4c-0.5,0-1.2-0.2-2-0.5c-2.2-1.1-2.6-1.7-1.5-2.8
				c0.9-0.9,0.8-1.5-0.5-2.1c-0.8-0.4-1.1-0.8-0.8-1.4c0.1-0.3,0.3-0.3,0.9-0.2c1.1,0.2,1.8-0.3,1.8-1.2c0-1.1,0.1-1.2,2.7-1
				c7.9,0.6,15.2,1,19.2,1c1.3,0,2.8,0.1,3.2,0.2c0.5,0.1,4.9,0.3,11.8,0.4c9.2,0.1,11.4,0.2,13.1,0.5c1.7,0.3,2.4,0.3,3.8,0.2
				c1-0.1,2.1-0.1,2.4,0c0.3,0.1,1.5,0.2,2.6,0.2c1.1,0,4.7,0.1,8.1,0.1l6,0.1l1.5,0.9c0.8,0.5,1.6,1,1.6,1.1c0.1,0.1,0.1,0.5,0,0.9
				c-0.1,0.9-0.5,1.1-2.7,1.3c-1,0.1-2.8,0.3-4,0.4c-1.3,0.1-4.3,0.2-7.6,0.2c-5.1-0.1-5.4-0.1-6.2-0.5l-0.8-0.4l-11.4,0.1
				l-11.4,0.1l-1.1,0.5c-0.6,0.3-1.5,0.8-2.1,1.2c-0.7,0.5-1.6,0.9-3.2,1.3c-1.2,0.3-2.8,0.8-3.5,1c-0.7,0.3-1.7,0.4-2.6,0.4
				c-0.8,0-1.8,0.1-2.2,0.2C639.5,563.5,638.8,563.5,638.1,563.3z M716.7,558c-0.4-0.1-0.9-0.3-1.2-0.4c-0.3-0.2-0.9-0.4-1.3-0.5
				c-0.4-0.1-1.2-0.3-1.6-0.5c-0.5-0.2-1.5-0.4-2.5-0.5c-0.9-0.1-1.7-0.2-1.8-0.2c-0.1-0.1,0-0.3,0.2-0.4c0.3-0.3,0.5-0.3,2.2-0.1
				c1.1,0.1,3.2,0.2,5,0.1c1.7-0.1,4.3,0,5.8,0.1c2.3,0.2,2.8,0.2,3.5-0.1c0.8-0.3,0.9-0.3,1.9,0c0.9,0.3,1.9,0.3,8.8,0.3
				c16.8-0.1,17.6-0.1,19,0.3c1.1,0.3,1.8,0.3,4.1,0.1c3.6-0.3,11.6-0.3,11.9,0c0.4,0.4-0.3,0.4-4.8,0.5c-2.4,0-7.3,0.2-10.9,0.3
				c-6.1,0.2-6.5,0.2-7.7,0.7l-1.2,0.5h-14.4C723.9,558.1,717.1,558.1,716.7,558z"/>
			<path style="clip-path:url(#SVGID_00000118397573559504815350000005231854998141127302_);fill:#FFFFFF;" d="M748.5,796.2
				c-3.4-1.3-7.4-6.2-10.1-12c-0.9-1.9-2.7-6.6-4-10.5c-3.4-9.9-4.2-11.8-5.1-11.8c-0.4,0-2.3,2.3-4.2,5.1
				c-4.5,6.7-7.1,9.9-9.8,11.7c-2.5,1.7-4,1.6-4.9-0.4c-0.3-0.7-2.5-3.5-4.9-6.2c-8.8-10-11.3-13.8-11.3-17.3
				c0-3.1,4.3-8.2,8.7-10.6c1.6-0.8,4,0.3,5.7,2.7c2.3,3.2,8.4,3.7,13.8,0.9c5.1-2.6,11.1-8.4,10-9.5c-0.1-0.1-2.3-0.5-4.9-0.8
				c-8.1-1-12.1-3.7-15.6-10.7c-1-1.9-1.8-3.5-1.9-3.7c-0.1-0.1-2.4,1.3-5.1,3.1c-9.4,6.5-16.7,9.3-24.5,9.3c-4.4,0-5-0.1-9.5-2.3
				c-7.7-3.7-14.9-9.1-14.9-11.3c0-1.5,3.4-2.7,9.4-3.3c3.1-0.3,7.1-1.1,9-1.7c7.5-2.5,16.8-8.7,29.7-19.7
				c8.5-7.3,35.2-33.5,36.9-36.2c1-1.6,1.1-2.4,0.8-5.2c-0.3-2.8-0.2-3.4,0.8-4.4c1.4-1.4,1.6-1.4,7.2,0.5c6.4,2.3,7.8,2.2,10.8-0.6
				c2.4-2.2,5.3-6.9,4.7-7.5c-0.8-0.8-7.5-1.5-13.6-1.3c-8.3,0.2-8,0-13,9c-4,7.2-6.3,10.3-7.8,10.3c-1.5,0-6.1-5.4-8-9.4
				c-0.9-2-1.9-3.8-2.2-4s-1.8,0-3.4,0.4c-12.6,3.3-27.3,3.9-33.7,1.4c-8.5-3.3-10.3-11.5-3.9-17.8c4.8-4.8,8.7-5.3,23.9-3.4
				c5,0.6,10.6,1.3,12.4,1.5l3.3,0.3l-0.3-3.5c-0.2-2.8-1-5-3.5-10.3c-3.7-7.9-4-10-1.7-14.7c2.7-5.6,5.5-6.6,13.2-4.6
				c2.8,0.8,7.7,1.8,10.7,2.3c8.6,1.4,13.6,4.4,13.6,8.3c0,1.4-2.6,6.9-5.7,12.1c-3.9,6.4-3.9,6.3,0.6,6.7c2.1,0.2,8.2,0.1,13.6-0.1
				c10-0.5,11.5-0.8,11.5-2.8c0-1.7-4.8-10.8-7.7-14.6c-1.6-2.1-2.9-4.1-2.9-4.5c0-1.5,4.6-4.7,12.7-8.8l8.1-4.2l5.7,3.8
				c10,6.7,16.8,12.8,16.8,15.2c0,1.2-1.9,4.3-5.1,8.3c-3.8,4.7-4.9,6.4-4.9,7.6c0,1.5,1.5,1.5,8.4,0.1c5.8-1.2,13.6-1.4,16.6-0.4
				c2.6,0.9,5.3,4.6,6.7,9.3c1.3,4.3,1,6.4-1.5,9.4c-3.3,3.9-8.1,4.2-23.5,1.2c-4.7-0.9-9.5-1.7-10.5-1.7c-4,0-9,3.3-19.6,13l-6.5,6
				l1.3,1.4c5.8,6.2,28.5,19.9,42,25.4c14.3,5.8,27.9,13.4,34.8,19.6l2.3,2.1l-2.2,3.4c-3.1,4.8-6.6,6.5-13,6.4
				c-10.6-0.1-25.2-6.3-36.7-15.5c-1.2-1-3.7-2.7-5.5-3.8c-1.8-1.1-6.4-4.6-10.3-7.9c-12.7-10.9-18.4-14.6-22.5-14.6
				c-2.1,0-2.5,0.3-7.6,5.5c-4.8,5-6.6,7.4-5.9,8.1c0.1,0.1,1.3-0.7,2.7-1.8c3.8-3.2,6.7-4.3,10.6-3.9c4.2,0.4,9.1,2.8,10.9,5.4
				c1.2,1.8,1.3,2.3,1,7.1l-0.3,5.1h4.9c9.8,0,20.3,4.2,22.3,8.9c0.9,2.2,0,4.3-3.2,7.2c-3.6,3.3-8.3,5.3-15.3,6.4
				c-6.2,1-10.9,3.1-10.9,4.9c0,1,1.7,1.3,10.8,1.7c7.9,0.3,12.1,1.2,16.5,3.4c6.7,3.4,13.9,10.4,16.6,16.1
				c5.7,12.1,1.1,21.4-9.3,18.7c-4.4-1.2-8.3-3.6-14.3-9c-2.8-2.5-6.2-5.3-7.5-6.1c-1.3-0.8-3.2-2-4.2-2.6c-2.7-1.7-2.5-2.7,0.8-5.8
				c3.6-3.3,3.3-3.9-2.3-5.7c-6.7-2.2-6.9-1.8-6.5,16.4c0.6,25.3-0.8,31.6-7.6,35C753.7,796.8,750.8,797.1,748.5,796.2z
				 M742.3,758.6c0.3-1.1,0.6-6.4,0.6-11.6v-9.6h-1.3c-3.4,0-8.6,7.2-8,11c0.7,4.2,6.2,13.4,7.6,12.5
				C741.5,760.8,742,759.8,742.3,758.6z M740.4,711.6c2.4-1.2,2.9-2.3,2.3-5.5c-0.8-4.5-3.9-5.2-11.4-2.5c-5.1,1.8-7.2,2.9-7.6,4.2
				c-0.5,1.3,0.9,4,2.5,4.6C728.7,713.4,737.9,712.9,740.4,711.6"/>
			<path style="clip-path:url(#SVGID_00000118397573559504815350000005231854998141127302_);fill:#231F20;" d="M491.2,542
				c-13.5-0.7-22.5-1.6-32.9-3.3c-46.7-7.9-89.2-28.4-125.1-60.3c-4-3.6-15.5-15.1-19.1-19.1c-32-35.9-52.5-78.5-60.4-125.2
				c-2.4-14.3-3.3-25.8-3.3-41.5c0-15.7,0.9-27.2,3.3-41.5c7.9-46.7,28.4-89.3,60.4-125.2c3.6-4,15.1-15.5,19.1-19.1
				c35.9-32,78.5-52.5,125.2-60.4c14.3-2.4,25.8-3.3,41.5-3.3c15.7,0,27.2,0.9,41.5,3.3c46.7,7.9,89.3,28.4,125.2,60.4
				c4,3.6,15.5,15.1,19.1,19.1c32,35.9,52.5,78.5,60.3,125.2c2.4,14.3,3.3,25.8,3.3,41.5c0,15.7-0.9,27.2-3.3,41.5
				c-7.9,46.7-28.4,89.3-60.3,125.2c-3.6,4-15.1,15.5-19.1,19.1c-26,23.1-55.1,40.1-87.3,50.9c-20.8,7-41,10.9-64,12.5
				C511.9,541.9,494.4,542.1,491.2,542z M493.3,466.2v-56.7h-32.5h-32.5v-6v-6h32.5h32.5v-29.1v-29.1l-2.9,2.9
				c-21.7,21-47.8,40.3-73.6,54.4c-32.4,17.7-66,28.4-98.4,31.4l-4.4,0.4l2.4,3.2c10.9,14.4,24.7,28.7,38.9,40.1
				c38.1,30.8,84.2,48.4,133.3,50.9c2,0.1,4,0.2,4.3,0.2l0.5,0V466.2z M432.5,493.4l-4.2-4.3l1.8-1.9c8.5-8.9,16.1-23.6,20.7-39.9
				c1.1-3.8,2.3-9.2,2.6-11.1c0.1-0.7,0.2-1.3,0.3-1.4c0.1-0.1,11.6,1.5,11.7,1.6c0.1,0.1-1.4,7.6-2.4,11.3
				c-2.5,9.9-6.7,20.8-11.1,28.8c-4.2,7.8-8.2,13.3-14,19.8l-1.2,1.3L432.5,493.4z M516.7,522.3c46.7-3.2,91.4-20.9,128.1-50.6
				c6.4-5.2,11.5-9.8,18.1-16.4c8.2-8.2,14.7-15.6,21.1-24.1l1.8-2.4l-0.8-0.1c-0.4-0.1-1.6-0.2-2.7-0.3c-1.1-0.1-3.8-0.4-6.1-0.6
				c-42.7-4.8-86.6-22.7-128-52.3c-13.4-9.6-25.9-19.9-38.5-31.8l-4.5-4.3v29.1v29.1h33.4H572v6v6h-33.4h-33.4v56.7v56.7l3.2-0.2
				C510.2,522.7,513.9,522.5,516.7,522.3z M561.3,494.3c-3.9-4.4-6.2-7.4-9.4-12.4c-7.4-11.6-13.3-26.9-16.4-42.5
				c-0.4-2-0.7-3.7-0.7-3.8c0.1-0.1,10.4-1.6,11.2-1.6c0.5,0,0.6,0.1,1.3,3.8c3.9,19.3,12.6,37.8,23.1,48.8l1.5,1.6l-4.3,4.3
				l-4.3,4.3L561.3,494.3z M696.5,411.5c22.3-36.4,34-77.9,33.9-120.7l0-6.1l-0.4-7.5c0-0.3-2.2,5.1-3.8,8.9
				c-1.8,4.3-5.2,9.6-8.6,11.8c-2,1.3-3.3,1.9-8.8,4.1c-33.5,13.5-85.5,21.9-157.3,25.4c-10.5,0.5-33.4,1.3-37.2,1.3h-1.2l2.2,2.2
				c4.1,4.2,12.7,12,19,17.2c26.6,22.2,55.5,39.8,84.1,51.2c23.1,9.2,46.2,14.6,68.6,16.1c6.4,0.4,6.7,0.4,7.1-0.1
				C694.3,415.1,695.4,413.4,696.5,411.5z M317.2,416.2c43.2-4.1,86.7-21.8,129-52.5c11.5-8.4,22.7-17.6,33.9-28.2l5-4.7l-20-0.2
				c-37.8-0.3-62.7-1.5-86.8-4.2c-49-5.4-75.3-15.9-81.9-32.8c-1-2.6-1.5-5.1-1.5-8.1c0-12.7,8.8-25.4,28.4-41.2
				c22.7-18.2,61.6-40,111-62.3l6.8-3.1l-71,0l-71,0l-1.9,3.5c-18.3,33.4-27.9,71.4-27.9,110c0,42.8,11.6,84,34.1,120.7l2.3,3.7
				l3.7-0.1C311.7,416.6,315.1,416.4,317.2,416.2z M515.6,318.1c19.9-0.6,36.7-1.3,51.4-2.2c66.7-4.2,114.1-12.8,143.2-26.2
				c7.5-3.4,13.6-7.3,19-11.9l0.8-0.7l-0.4-4.6c-1.9-22.5-7.1-44.2-15.4-65.2c-9.8-24.7-23.3-46.7-41.4-67.4
				c-4.5-5.1-15.3-16-20.5-20.5c-20.5-17.9-42.4-31.4-67-41.2c-5.9-2.4-14.1-5.2-19.8-6.9c-3.8-1.1-10-2.8-10-2.7
				c0,0-0.7,1.3-1.5,2.8c-4.2,8-8.8,14.2-15.6,21c-14.2,14.2-33.4,24.3-58.1,30.7c-7.6,2-20.2,4.3-27.6,5.1l-1.5,0.2v12.9v12.9h-6
				h-6v-12.5v-12.5l-0.5,0.2c-0.3,0.1-12.8,0.2-27.8,0.1l-27.3-0.1V142v12.4h-6h-6v-12.4v-12.4l-17.3,0h-17.3l-3.2,3.3
				c-8.4,8.6-17.2,19.5-25,30.9l-2,2.9l97.6,0.1L502,167l-14.5,5.7c-22,8.7-34.4,13.9-51.2,21.6c-38.1,17.3-68.6,33.7-91.3,49.1
				c-5.3,3.6-13.3,9.6-17.6,13.2c-4,3.4-10.7,10.1-13.3,13.4c-3.9,4.9-6.4,9.7-7,13.3c-1.8,11.4,13.1,20.7,43.4,26.9
				c22.4,4.6,52.8,7.3,93,8.3C453.7,318.6,503.9,318.5,515.6,318.1L515.6,318.1z M371.6,109.5c0-6.7-0.1-8.4-0.3-8.2
				c-3,1.8-16.9,12.3-20.6,15.7l-1.1,1l11,0l11,0V109.5z M438.8,117.6c0.4-0.2,0.4-1.6,0.4-23.8c0-14-0.1-23.6-0.2-23.6
				c-0.5,0-9.4,2.7-14.1,4.3c-12.6,4.3-25.8,10.2-37.5,16.8l-3.9,2.2v12.2V118l27.4-0.1C426.1,117.8,438.6,117.7,438.8,117.6z
				 M457.6,115.6c17.2-2.5,33.3-7.1,46.3-13.4c11.1-5.4,19.1-10.9,26.7-18.7c5-5.1,8.3-9.4,11.6-15.2c1.1-1.9,1.2-2.2,0.8-2.3
				c-0.8-0.3-9.1-1.6-14-2.2c-24.6-3.1-49.3-2.2-73.9,2.5l-3.9,0.8v24.7v24.7l1-0.1C452.9,116.3,455.3,116,457.6,115.6z"/>
			
				<path style="clip-path:url(#SVGID_00000118397573559504815350000005231854998141127302_);fill:none;stroke:#231F20;stroke-width:10.7814;stroke-miterlimit:10;" d="
				M546.2,273.2h-36c-9.3,0-16.8-7.5-16.8-16.8v-17.7c0-9.3,7.5-16.8,16.8-16.8h36c9.3,0,16.8,7.5,16.8,16.8v17.7
				C563,265.7,555.4,273.2,546.2,273.2z"/>
			
				<path style="clip-path:url(#SVGID_00000118397573559504815350000005231854998141127302_);fill:none;stroke:#231F20;stroke-width:10.7814;stroke-miterlimit:10;" d="
				M646.2,273.2h-36c-9.3,0-16.8-7.5-16.8-16.8v-17.7c0-9.3,7.5-16.8,16.8-16.8h36c9.3,0,16.8,7.5,16.8,16.8v17.7
				C663,265.7,655.5,273.2,646.2,273.2z"/>
			
				<path style="clip-path:url(#SVGID_00000118397573559504815350000005231854998141127302_);fill:none;stroke:#231F20;stroke-width:10.7814;stroke-miterlimit:10;" d="
				M596.2,193.6h-36c-9.3,0-16.8-7.5-16.8-16.8v-17.7c0-9.3,7.5-16.8,16.8-16.8h36c9.3,0,16.8,7.5,16.8,16.8v17.7
				C613,186.1,605.5,193.6,596.2,193.6z"/>
		</g>
	</g>
</g>
</svg>
